<svg width="65" height="64" viewBox="0 0 65 64" fill="none" xmlns="http://www.w3.org/2000/svg">
<g filter="url(#filter0_d)">
<circle cx="32.9841" cy="28" r="28" fill="url(#paint0_linear)"/>
<circle cx="32.9841" cy="28" r="27.5" stroke="#FFB600"/>
</g>
<g clip-path="url(#clip0)">
<path d="M45.0342 21.9445V15.1004C45.0342 14.9011 44.9155 14.7211 44.7324 14.6425C44.5493 14.5639 44.337 14.6021 44.1926 14.7394C41.1985 17.5875 37.2737 19.1559 33.1412 19.1559H27.1133C26.8381 19.1559 26.615 19.379 26.615 19.6542C26.615 19.9294 26.8381 20.1525 27.1133 20.1525H33.1413C36.0618 20.1525 38.8843 19.414 41.3834 18.0292V20.2165C41.3834 20.4917 41.6064 20.7148 41.8817 20.7148C42.1569 20.7148 42.3799 20.4917 42.3799 20.2165V17.4314C42.9535 17.06 43.5075 16.6535 44.0378 16.2113V22.2877C44.0377 22.2929 44.0377 22.2981 44.0378 22.3033V30.3162C44.0377 30.3214 44.0377 30.3266 44.0378 30.3317V35.4744C43.5075 35.0322 42.9535 34.6257 42.3799 34.2544V22.031C42.3799 21.7558 42.1569 21.5328 41.8817 21.5328C41.6064 21.5328 41.3834 21.7558 41.3834 22.031V33.6564C38.8843 32.2716 36.0618 31.5332 33.1413 31.5332H26.5538C24.704 31.5332 23.1992 30.0284 23.1992 28.1786V23.507C23.1992 22.1557 24.0034 20.9424 25.2482 20.4159C25.5016 20.3087 25.6202 20.0163 25.5129 19.7629C25.4058 19.5095 25.1134 19.3909 24.86 19.4981C23.2552 20.1769 22.2154 21.7362 22.2033 23.4763H21.4952C20.662 23.4764 19.9841 24.1542 19.9841 24.9874V27.1659C19.9841 27.9991 20.662 28.6769 21.4952 28.6769H22.2321C22.4802 30.8422 24.3231 32.5298 26.5538 32.5298H31.9463L34.0381 39.6781C34.0886 39.8504 34.0558 40.0316 33.9481 40.1754C33.8405 40.3191 33.6756 40.4015 33.4961 40.4015H30.5733C30.3242 40.4015 30.1014 40.2345 30.0314 39.9954L28.157 33.5902C28.0796 33.3261 27.8031 33.1746 27.5388 33.2519C27.2747 33.3292 27.1233 33.6059 27.2005 33.87L29.0749 40.2751C29.2684 40.9362 29.8846 41.3978 30.5733 41.3978H33.4961C33.9926 41.3978 34.4479 41.17 34.7455 40.7728C35.0432 40.3756 35.134 39.8745 34.9945 39.3981L34.2417 36.8255H35.1323C35.6285 36.8255 36.0839 36.5978 36.3816 36.2008C36.6792 35.8036 36.7702 35.3026 36.631 34.8259L36.0356 32.7914C39.0822 33.3464 41.9084 34.7735 44.1927 36.9463C44.2871 37.0362 44.4107 37.0836 44.5362 37.0836C44.6025 37.0836 44.6692 37.0704 44.7325 37.0433C44.9156 36.9648 45.0343 36.7847 45.0343 36.5854V30.675C46.8132 29.9645 47.9841 28.2542 47.9841 26.3098C47.9841 24.3652 46.8131 22.655 45.0342 21.9445ZM22.2026 27.6804H21.4952C21.2115 27.6804 20.9806 27.4496 20.9806 27.1659V24.9874C20.9806 24.7037 21.2114 24.4728 21.4952 24.4728H22.2026V27.6804ZM35.5842 35.603C35.4766 35.7466 35.3117 35.829 35.1322 35.829H33.9501L32.9846 32.5297H33.1413C33.7497 32.5297 34.3534 32.5647 34.9505 32.6317L35.6744 35.1055C35.7248 35.2779 35.692 35.4593 35.5842 35.603ZM45.0342 29.5772V23.0422C46.2253 23.6771 46.9876 24.9169 46.9876 26.3097C46.9876 27.7024 46.2253 28.9423 45.0342 29.5772Z" fill="black"/>
</g>
<defs>
<filter id="filter0_d" x="0.984131" y="0" width="64" height="64" filterUnits="userSpaceOnUse" color-interpolation-filters="sRGB">
<feFlood flood-opacity="0" result="BackgroundImageFix"/>
<feColorMatrix in="SourceAlpha" type="matrix" values="0 0 0 0 0 0 0 0 0 0 0 0 0 0 0 0 0 0 127 0"/>
<feOffset dy="4"/>
<feGaussianBlur stdDeviation="2"/>
<feColorMatrix type="matrix" values="0 0 0 0 0 0 0 0 0 0 0 0 0 0 0 0 0 0 0.25 0"/>
<feBlend mode="normal" in2="BackgroundImageFix" result="effect1_dropShadow"/>
<feBlend mode="normal" in="SourceGraphic" in2="effect1_dropShadow" result="shape"/>
</filter>
<linearGradient id="paint0_linear" x1="15.9183" y1="5.5" x2="52.4626" y2="49.7746" gradientUnits="userSpaceOnUse">
<stop stop-color="#ECECEC"/>
<stop offset="0.5" stop-color="#DEDEDE"/>
<stop offset="1" stop-color="#C5C5C5"/>
</linearGradient>
<clipPath id="clip0">
<rect width="28" height="28" fill="white" transform="translate(19.9841 14)"/>
</clipPath>
</defs>
</svg>
