<svg width="65" height="64" viewBox="0 0 65 64" fill="none" xmlns="http://www.w3.org/2000/svg">
<g filter="url(#filter0_d)">
<circle cx="32.0127" cy="28" r="28" fill="url(#paint0_linear)"/>
<circle cx="32.0127" cy="28" r="27.5" stroke="#FFB600"/>
</g>
<g clip-path="url(#clip0)">
<path d="M42.1738 15.1852H21.8515C19.7347 15.1852 18.0127 16.9073 18.0127 19.0241V36.7108C18.0127 36.978 18.2293 37.1947 18.4966 37.1947C18.7639 37.1947 18.9804 36.978 18.9804 36.7108V19.0241C18.9804 17.4409 20.2684 16.1529 21.8515 16.1529H39.6295C38.8362 16.8568 38.335 17.8827 38.335 19.024V39.8471H18.9804V38.3237C18.9804 38.0565 18.7639 37.8398 18.4966 37.8398C18.2293 37.8398 18.0127 38.0564 18.0127 38.3237V40.331C18.0127 40.5982 18.2293 40.8149 18.4966 40.8149H38.8188C39.0861 40.8149 39.3027 40.5982 39.3027 40.331V19.0241C39.3027 17.4409 40.5907 16.153 42.1738 16.153C43.7569 16.1529 45.0449 17.4409 45.0449 19.0241V28.1705H40.8525C40.5852 28.1705 40.3686 28.3871 40.3686 28.6543C40.3686 28.9215 40.5852 29.1382 40.8525 29.1382H45.5288C45.7961 29.1382 46.0127 28.9216 46.0127 28.6543V19.0241C46.0127 16.9073 44.2906 15.1852 42.1738 15.1852Z" fill="black"/>
<path d="M28.6752 21.9044C28.9425 21.9044 29.1591 21.6878 29.1591 21.4205V19.5948C29.1591 19.3276 28.9424 19.1109 28.6752 19.1109H20.8176C20.5503 19.1109 20.3337 19.3275 20.3337 19.5948V28.8694C20.3337 29.1366 20.5503 29.3532 20.8176 29.3532H28.6752C28.9425 29.3532 29.1591 29.1366 29.1591 28.8694V23.2915C29.1591 23.0243 28.9425 22.8076 28.6752 22.8076C28.4079 22.8076 28.1914 23.0242 28.1914 23.2915V28.3855H21.3015V20.0787H28.1914V21.4205C28.1914 21.6878 28.4079 21.9044 28.6752 21.9044Z" fill="black"/>
<path d="M36.7255 19.111H30.8872C30.6199 19.111 30.4033 19.3276 30.4033 19.5948C30.4033 19.8621 30.6199 20.0787 30.8872 20.0787H36.7255C36.9928 20.0787 37.2094 19.862 37.2094 19.5948C37.2094 19.3276 36.9927 19.111 36.7255 19.111Z" fill="black"/>
<path d="M36.7254 21.4296H33.4643C33.197 21.4296 32.9805 21.6462 32.9805 21.9135C32.9805 22.1807 33.197 22.3973 33.4643 22.3973H36.7254C36.9927 22.3973 37.2092 22.1807 37.2092 21.9135C37.2092 21.6463 36.9926 21.4296 36.7254 21.4296Z" fill="black"/>
<path d="M31.8516 21.4296H30.8872C30.6199 21.4296 30.4033 21.6462 30.4033 21.9135C30.4033 22.1807 30.6199 22.3973 30.8872 22.3973H31.8516C32.1189 22.3973 32.3355 22.1807 32.3355 21.9135C32.3355 21.6463 32.1189 21.4296 31.8516 21.4296Z" fill="black"/>
<path d="M36.7255 23.7483H30.8872C30.6199 23.7483 30.4033 23.9649 30.4033 24.2321C30.4033 24.4993 30.6199 24.716 30.8872 24.716H36.7255C36.9928 24.716 37.2094 24.4994 37.2094 24.2321C37.2094 23.9649 36.9928 23.7483 36.7255 23.7483Z" fill="black"/>
<path d="M36.7255 28.3855H30.8872C30.6199 28.3855 30.4033 28.6022 30.4033 28.8694C30.4033 29.1366 30.6199 29.3532 30.8872 29.3532H36.7255C36.9928 29.3532 37.2094 29.1366 37.2094 28.8694C37.2094 28.6021 36.9928 28.3855 36.7255 28.3855Z" fill="black"/>
<path d="M36.7254 26.0669H35.2707C35.0034 26.0669 34.7869 26.2835 34.7869 26.5507C34.7869 26.818 35.0034 27.0346 35.2707 27.0346H36.7254C36.9927 27.0346 37.2092 26.8179 37.2092 26.5507C37.2092 26.2835 36.9926 26.0669 36.7254 26.0669Z" fill="black"/>
<path d="M33.658 26.0669H30.8872C30.6199 26.0669 30.4033 26.2835 30.4033 26.5507C30.4033 26.818 30.6199 27.0346 30.8872 27.0346H33.658C33.9253 27.0346 34.1419 26.8179 34.1419 26.5507C34.1419 26.2835 33.9253 26.0669 33.658 26.0669Z" fill="black"/>
<path d="M43.1677 21.2145H40.8525C40.5852 21.2145 40.3687 21.4312 40.3687 21.6984C40.3687 21.9657 40.5852 22.1823 40.8525 22.1823H43.1677C43.435 22.1823 43.6515 21.9657 43.6515 21.6984C43.6515 21.4312 43.4349 21.2145 43.1677 21.2145Z" fill="black"/>
<path d="M43.1677 23.5332H40.8525C40.5852 23.5332 40.3687 23.7498 40.3687 24.0171C40.3687 24.2843 40.5852 24.501 40.8525 24.501H43.1677C43.435 24.501 43.6515 24.2843 43.6515 24.0171C43.6515 23.7499 43.4349 23.5332 43.1677 23.5332Z" fill="black"/>
<path d="M43.1677 25.8518H40.8525C40.5852 25.8518 40.3687 26.0684 40.3687 26.3357C40.3687 26.6029 40.5852 26.8196 40.8525 26.8196H43.1677C43.435 26.8196 43.6515 26.6029 43.6515 26.3357C43.6515 26.0685 43.4349 25.8518 43.1677 25.8518Z" fill="black"/>
<path d="M36.7253 33.0228H28.8677C28.6004 33.0228 28.3838 33.2394 28.3838 33.5066V38.1439C28.3838 38.4111 28.6004 38.6278 28.8677 38.6278H36.7253C36.9926 38.6278 37.2092 38.4111 37.2092 38.1439V33.5066C37.2092 33.2394 36.9925 33.0228 36.7253 33.0228ZM36.2414 37.66H29.3515V33.9905H36.2414V37.66Z" fill="black"/>
<path d="M23.3997 30.7041H20.8176C20.5503 30.7041 20.3337 30.9208 20.3337 31.188C20.3337 31.4553 20.5503 31.6719 20.8176 31.6719H23.3997C23.6671 31.6719 23.8836 31.4553 23.8836 31.188C23.8836 30.9208 23.6671 30.7041 23.3997 30.7041Z" fill="black"/>
<path d="M36.7254 30.7041H24.9482C24.6809 30.7041 24.4644 30.9208 24.4644 31.188C24.4644 31.4553 24.6809 31.6719 24.9482 31.6719H36.7254C36.9927 31.6719 37.2093 31.4553 37.2093 31.188C37.2093 30.9208 36.9927 30.7041 36.7254 30.7041Z" fill="black"/>
<path d="M26.6559 33.0228H20.8176C20.5503 33.0228 20.3337 33.2394 20.3337 33.5066C20.3337 33.7739 20.5503 33.9905 20.8176 33.9905H26.6559C26.9232 33.9905 27.1398 33.7739 27.1398 33.5066C27.1398 33.2394 26.9232 33.0228 26.6559 33.0228Z" fill="black"/>
<path d="M24.0449 37.6601H20.8176C20.5503 37.6601 20.3337 37.8767 20.3337 38.1439C20.3337 38.4112 20.5503 38.6278 20.8176 38.6278H24.0449C24.3122 38.6278 24.5288 38.4111 24.5288 38.1439C24.5288 37.8767 24.3122 37.6601 24.0449 37.6601Z" fill="black"/>
<path d="M26.656 37.6601H25.6579C25.3906 37.6601 25.1741 37.8767 25.1741 38.1439C25.1741 38.4112 25.3906 38.6278 25.6579 38.6278H26.656C26.9234 38.6278 27.1399 38.4111 27.1399 38.1439C27.1399 37.8767 26.9233 37.6601 26.656 37.6601Z" fill="black"/>
<path d="M26.6559 35.3414H20.8176C20.5503 35.3414 20.3337 35.558 20.3337 35.8252C20.3337 36.0925 20.5503 36.3091 20.8176 36.3091H26.6559C26.9232 36.3091 27.1398 36.0924 27.1398 35.8252C27.1398 35.558 26.9232 35.3414 26.6559 35.3414Z" fill="black"/>
</g>
<defs>
<filter id="filter0_d" x="0.0126953" y="0" width="64" height="64" filterUnits="userSpaceOnUse" color-interpolation-filters="sRGB">
<feFlood flood-opacity="0" result="BackgroundImageFix"/>
<feColorMatrix in="SourceAlpha" type="matrix" values="0 0 0 0 0 0 0 0 0 0 0 0 0 0 0 0 0 0 127 0"/>
<feOffset dy="4"/>
<feGaussianBlur stdDeviation="2"/>
<feColorMatrix type="matrix" values="0 0 0 0 0 0 0 0 0 0 0 0 0 0 0 0 0 0 0.25 0"/>
<feBlend mode="normal" in2="BackgroundImageFix" result="effect1_dropShadow"/>
<feBlend mode="normal" in="SourceGraphic" in2="effect1_dropShadow" result="shape"/>
</filter>
<linearGradient id="paint0_linear" x1="14.9469" y1="5.5" x2="51.4911" y2="49.7746" gradientUnits="userSpaceOnUse">
<stop stop-color="#ECECEC"/>
<stop offset="0.5" stop-color="#DEDEDE"/>
<stop offset="1" stop-color="#C5C5C5"/>
</linearGradient>
<clipPath id="clip0">
<rect width="28" height="28" fill="white" transform="translate(18.0127 14)"/>
</clipPath>
</defs>
</svg>
