<svg width="65" height="64" viewBox="0 0 65 64" fill="none" xmlns="http://www.w3.org/2000/svg">
<g filter="url(#filter0_d)">
<circle cx="32.9968" cy="28" r="28" fill="url(#paint0_linear)"/>
<circle cx="32.9968" cy="28" r="27.5" stroke="#FFB600"/>
</g>
<path d="M41.1541 14H26.8398C25.7348 14 24.8357 14.8991 24.8357 16.0041V39.9959C24.8357 41.1009 25.7348 41.9999 26.8398 41.9999H38.3201C38.5749 41.9999 38.7814 41.7934 38.7814 41.5387C38.7814 41.2839 38.5749 41.0774 38.3201 41.0774H26.8398C26.2435 41.0774 25.7583 40.5922 25.7583 39.9959V16.0041C25.7583 15.4078 26.2435 14.9226 26.8398 14.9226H41.1541C41.7504 14.9226 42.2356 15.4078 42.2356 16.0041V39.9958C42.2356 40.5921 41.7504 41.0773 41.1541 41.0773H40.073C39.8182 41.0773 39.6117 41.2839 39.6117 41.5386C39.6117 41.7934 39.8183 41.9999 40.073 41.9999H41.1541C42.2591 41.9999 43.1582 41.1008 43.1582 39.9959V16.0041C43.1582 14.8991 42.2592 14 41.1541 14Z" fill="black"/>
<path d="M40.693 18.3988H27.3009C27.0461 18.3988 26.8396 18.6054 26.8396 18.8601V20.704C26.8396 20.9588 27.0462 21.1653 27.3009 21.1653C27.5557 21.1653 27.7622 20.9588 27.7622 20.704V19.3215H40.2316V36.6785H27.7622V22.3646C27.7622 22.1098 27.5557 21.9033 27.3009 21.9033C27.0462 21.9033 26.8397 22.1099 26.8397 22.3646V37.1398C26.8397 37.3946 27.0462 37.6011 27.3009 37.6011H40.693C40.9477 37.6011 41.1542 37.3946 41.1542 37.1398V18.8601C41.1542 18.6054 40.9477 18.3988 40.693 18.3988Z" fill="black"/>
<path d="M36.5801 16.0911H31.4137C31.1589 16.0911 30.9524 16.2977 30.9524 16.5524C30.9524 16.8072 31.1589 17.0137 31.4137 17.0137H36.5801C36.8348 17.0137 37.0413 16.8071 37.0413 16.5524C37.0413 16.2977 36.8348 16.0911 36.5801 16.0911Z" fill="black"/>
<path d="M38.8006 27.701L36.5512 25.056C36.3861 24.862 36.095 24.8384 35.9009 25.0034C35.7069 25.1685 35.6833 25.4596 35.8484 25.6537L37.4514 27.5386H36.3067C36.0519 27.5386 35.8454 27.7452 35.8454 27.9999V32.7741H32.1485V28C32.1485 27.7452 31.942 27.5387 31.6872 27.5387H30.5426L33.997 23.4766L34.9622 24.6116C35.1272 24.8057 35.4184 24.8292 35.6125 24.6642C35.8065 24.4991 35.8301 24.208 35.665 24.014L34.3484 22.4657C34.2608 22.3627 34.1323 22.3033 33.997 22.3033C33.8618 22.3033 33.7332 22.3627 33.6456 22.4657L29.1934 27.7011C29.0769 27.8382 29.0506 28.0303 29.1261 28.1936C29.2016 28.3568 29.365 28.4613 29.5448 28.4613H31.226V33.2355C31.226 33.4902 31.4326 33.6967 31.6873 33.6967H36.3068C36.5616 33.6967 36.7681 33.4902 36.768 33.2354V28.4612H38.4492C38.6291 28.4612 38.7925 28.3567 38.8679 28.1935C38.9434 28.0303 38.9171 27.8381 38.8006 27.701Z" fill="black"/>
<path d="M33.9972 39.8935C34.2519 39.8935 34.4585 39.6869 34.4585 39.4322C34.4585 39.1774 34.2519 38.9709 33.9972 38.9709C33.7424 38.9709 33.5359 39.1774 33.5359 39.4322C33.5359 39.6869 33.7424 39.8935 33.9972 39.8935Z" fill="black"/>
<defs>
<filter id="filter0_d" x="0.996826" y="0" width="64" height="64" filterUnits="userSpaceOnUse" color-interpolation-filters="sRGB">
<feFlood flood-opacity="0" result="BackgroundImageFix"/>
<feColorMatrix in="SourceAlpha" type="matrix" values="0 0 0 0 0 0 0 0 0 0 0 0 0 0 0 0 0 0 127 0"/>
<feOffset dy="4"/>
<feGaussianBlur stdDeviation="2"/>
<feColorMatrix type="matrix" values="0 0 0 0 0 0 0 0 0 0 0 0 0 0 0 0 0 0 0.25 0"/>
<feBlend mode="normal" in2="BackgroundImageFix" result="effect1_dropShadow"/>
<feBlend mode="normal" in="SourceGraphic" in2="effect1_dropShadow" result="shape"/>
</filter>
<linearGradient id="paint0_linear" x1="15.931" y1="5.5" x2="52.4753" y2="49.7746" gradientUnits="userSpaceOnUse">
<stop stop-color="#ECECEC"/>
<stop offset="0.5" stop-color="#DEDEDE"/>
<stop offset="1" stop-color="#C5C5C5"/>
</linearGradient>
</defs>
</svg>
