<svg width="65" height="64" viewBox="0 0 65 64" fill="none" xmlns="http://www.w3.org/2000/svg">
<g filter="url(#filter0_d)">
<ellipse cx="32.1767" cy="28" rx="28.1767" ry="28" fill="url(#paint0_linear)"/>
<path d="M59.8533 28C59.8533 43.1849 47.465 55.5 32.1767 55.5C16.8883 55.5 4.5 43.1849 4.5 28C4.5 12.8151 16.8883 0.5 32.1767 0.5C47.465 0.5 59.8533 12.8151 59.8533 28Z" stroke="#FFB600"/>
</g>
<g clip-path="url(#clip0)">
<path d="M29.4613 36.5778H24.0175C23.2467 36.5778 22.6197 35.9547 22.6197 35.1887V33.6676C22.742 33.6959 22.8675 33.7115 22.995 33.7115C23.053 33.7115 23.1114 33.7086 23.1698 33.7025C23.2657 33.6927 23.3595 33.6743 23.4505 33.649V35.1887C23.4505 35.4995 23.7048 35.7523 24.0175 35.7523H29.3522C29.5816 35.7523 29.7676 35.5675 29.7676 35.3395C29.7676 35.1114 29.5816 34.9267 29.3522 34.9267H24.2812V33.1101C24.284 33.1068 24.2869 33.1036 24.2897 33.1003C24.5699 32.7574 24.699 32.3267 24.6531 31.8874C24.6124 31.4972 24.4377 31.1419 24.1573 30.8722C24.4304 30.7703 24.6728 30.5982 24.8615 30.3672C25.4084 29.6979 25.3404 28.7286 24.7289 28.1392C25.0021 28.0373 25.2444 27.8652 25.4333 27.6341C25.7134 27.2913 25.8424 26.8606 25.7966 26.4213C25.7507 25.9821 25.5355 25.5868 25.1905 25.3084L24.2812 24.5747V20.4442C24.2812 20.2162 24.0953 20.0314 23.8658 20.0314C23.6364 20.0314 23.4505 20.2162 23.4505 20.4442V23.9065C23.205 23.7247 22.9193 23.6156 22.6197 23.5871V16.2147C22.6197 15.4487 23.2468 14.8256 24.0176 14.8256H33.2621C34.0329 14.8256 34.66 15.4487 34.66 16.2147V23.8318C34.66 24.0598 34.846 24.2446 35.0754 24.2446C35.3048 24.2446 35.4908 24.0598 35.4908 23.8318V16.2147C35.4908 14.9935 34.491 14 33.2621 14H24.0176C22.7887 14 21.7889 14.9935 21.7889 16.2147V19.3813C21.4838 19.2014 21.1302 19.1237 20.7711 19.1607C20.3291 19.2063 19.9314 19.4201 19.6512 19.763C19.3711 20.1058 19.242 20.5365 19.2879 20.9758C19.3337 21.415 19.549 21.8103 19.8939 22.0887L21.7889 23.6179V23.7186C21.5491 23.8229 21.336 23.9829 21.1662 24.1907C20.886 24.5335 20.757 24.9643 20.8028 25.4035C20.8436 25.7938 21.0182 26.149 21.2986 26.4187C21.0255 26.5206 20.7832 26.6928 20.5944 26.9237C20.0472 27.5934 20.1156 28.5633 20.7279 29.1526C20.4605 29.2522 20.2154 29.421 20.0227 29.6568C19.7425 29.9996 19.6135 30.4304 19.6594 30.8696C19.7052 31.3088 19.9204 31.7041 20.2654 31.9826L21.7889 33.212V35.1887C21.7889 36.4099 22.7886 37.4034 24.0175 37.4034H29.4613C29.6907 37.4034 29.8767 37.2186 29.8767 36.9906C29.8767 36.7625 29.6907 36.5778 29.4613 36.5778ZM20.4176 21.4478C20.2449 21.3084 20.1372 21.1105 20.1142 20.8906C20.0912 20.6707 20.1558 20.455 20.2961 20.2834C20.4364 20.1117 20.6355 20.0047 20.8568 19.9818C21.0779 19.9591 21.2952 20.0232 21.4679 20.1626L21.7889 20.4217V22.5543L20.4176 21.4478ZM21.8111 24.7111C21.9514 24.5395 22.1505 24.4324 22.3719 24.4095C22.4011 24.4065 22.4303 24.405 22.4594 24.405C22.6498 24.405 22.8331 24.4694 22.9829 24.5903L24.6669 25.9492C24.8396 26.0885 24.9474 26.2864 24.9703 26.5063C24.9933 26.7263 24.9287 26.9419 24.7884 27.1136C24.6482 27.2852 24.4491 27.3922 24.2277 27.4151C24.0155 27.437 23.8076 27.378 23.6385 27.2502L21.9327 25.8754C21.76 25.7361 21.6522 25.5382 21.6293 25.3183C21.6063 25.0983 21.6709 24.8828 21.8111 24.7111ZM21.2394 27.4442C21.3796 27.2726 21.5787 27.1655 21.8001 27.1426C22.0122 27.1208 22.2202 27.1797 22.3893 27.3075L24.0951 28.6823C24.4517 28.9701 24.5062 29.4925 24.2166 29.8467C24.0764 30.0183 23.8773 30.1254 23.6559 30.1483C23.444 30.17 23.2363 30.1114 23.0673 29.9839L21.3609 28.6086C21.0043 28.3209 20.9498 27.7985 21.2394 27.4442ZM20.6677 30.1773C20.832 29.9761 21.0726 29.8717 21.3151 29.8717C21.4899 29.8717 21.6654 29.9267 21.8144 30.038L23.5233 31.4154C23.696 31.5547 23.8038 31.7527 23.8267 31.9726C23.8497 32.1925 23.7851 32.4081 23.6448 32.5798C23.5046 32.7514 23.3054 32.8585 23.0841 32.8813C22.8629 32.9041 22.6458 32.8399 22.4731 32.7005L20.7891 31.3417C20.4326 31.0539 20.3781 30.5316 20.6677 30.1773Z" fill="black"/>
<path d="M33.4138 22.618C33.6432 22.618 33.8292 22.4332 33.8292 22.2052V16.2147C33.8292 15.904 33.5748 15.6512 33.2621 15.6512H32.1535C31.793 15.6512 31.4635 15.8295 31.2723 16.1283C31.0755 16.4359 30.7393 16.6195 30.3731 16.6195H26.9415C26.5752 16.6195 26.2391 16.4359 26.0422 16.1283C25.851 15.8295 25.5216 15.6512 25.161 15.6512H24.0175C23.7048 15.6512 23.4504 15.904 23.4504 16.2147V18.6851C23.4504 18.9131 23.6364 19.0979 23.8658 19.0979C24.0952 19.0979 24.2812 18.9131 24.2812 18.6851V16.4768H25.161C25.2348 16.4768 25.3039 16.513 25.3411 16.5713C25.6913 17.1185 26.2896 17.4451 26.9415 17.4451H30.373C31.025 17.4451 31.6232 17.1185 31.9734 16.5714C32.0107 16.513 32.0797 16.4768 32.1535 16.4768H32.9984V22.2052C32.9984 22.4332 33.1844 22.618 33.4138 22.618Z" fill="black"/>
<path d="M44.9759 41.3199L39.9196 35.4093C39.8295 35.3038 39.7798 35.1696 39.7798 35.0311V32.9059C39.7798 31.4172 39.2139 30.0007 38.1864 28.9174L32.9942 23.4431C32.7918 23.2297 32.5063 23.1094 32.2115 23.1162C31.9165 23.1219 31.636 23.2519 31.4421 23.4728L31.3392 23.5901C30.4763 24.5733 30.4359 26.0337 31.2431 27.0627L33.1677 29.516C33.2917 29.674 33.3073 29.8886 33.2074 30.0627L32.739 30.8793C32.6255 31.0774 32.6949 31.3295 32.8942 31.4423C33.0935 31.5552 33.3472 31.4862 33.4608 31.2881L33.9292 30.4715C34.1964 30.0056 34.1547 29.4314 33.823 29.0084L31.8983 26.5551C31.3352 25.8373 31.3635 24.8185 31.9654 24.1327L32.0683 24.0155C32.1233 23.9528 32.1917 23.9423 32.2276 23.9416C32.2632 23.9401 32.3322 23.9488 32.3896 24.0093L37.5818 29.4836C38.4634 30.4131 38.949 31.6285 38.949 32.9059V35.0311C38.949 35.3652 39.0689 35.6893 39.2867 35.9439L44.3429 41.8545C44.425 41.9506 44.542 42 44.6596 42C44.7547 42 44.8503 41.9677 44.9284 41.9017C45.1032 41.7541 45.1244 41.4935 44.9759 41.3199Z" fill="black"/>
<path d="M34.8047 40.1726C34.7402 40.0889 34.646 40.033 34.5413 40.0162C33.0971 39.7842 31.9291 38.6715 31.6348 37.2475L31.4817 36.5066C31.3084 35.6684 31.4479 34.7973 31.8744 34.0538L32.5841 32.8164C32.6977 32.6183 32.6283 32.3663 32.429 32.2534C32.2297 32.1406 31.976 32.2096 31.8624 32.4076L31.1526 33.6451C30.6262 34.5628 30.4541 35.6381 30.6679 36.6728L30.821 37.4137C31.1729 39.1166 32.5371 40.4588 34.2428 40.8013L35.0428 41.8384C35.1246 41.9444 35.248 42.0001 35.3728 42.0001C35.4609 42.0001 35.5498 41.9723 35.6252 41.9149C35.8073 41.7762 35.8417 41.5171 35.7021 41.3362L34.8047 40.1726Z" fill="black"/>
<path d="M26.5585 22.2483C26.4014 22.0822 26.1386 22.074 25.9713 22.2301C25.8041 22.3862 25.7959 22.6474 25.953 22.8136C26.6158 23.5148 27.514 23.9009 28.4821 23.9009C29.4502 23.9009 30.3483 23.5148 31.0111 22.8136C31.1682 22.6474 31.16 22.3862 30.9928 22.2301C30.8255 22.074 30.5627 22.0821 30.4056 22.2483C29.9015 22.7816 29.2183 23.0753 28.482 23.0753C27.7458 23.0753 27.0626 22.7817 26.5585 22.2483Z" fill="black"/>
<path d="M27.6799 20.2753V19.5646C27.6799 19.3366 27.4939 19.1518 27.2645 19.1518C27.0351 19.1518 26.8491 19.3366 26.8491 19.5646V20.2753C26.8491 20.5034 27.0351 20.6881 27.2645 20.6881C27.4939 20.6881 27.6799 20.5033 27.6799 20.2753Z" fill="black"/>
<path d="M29.9824 20.2753V19.5646C29.9824 19.3366 29.7964 19.1518 29.567 19.1518C29.3376 19.1518 29.1516 19.3366 29.1516 19.5646V20.2753C29.1516 20.5034 29.3376 20.6881 29.567 20.6881C29.7964 20.6881 29.9824 20.5033 29.9824 20.2753Z" fill="black"/>
<path d="M28.4821 29.1309C27.4168 29.1309 26.55 29.9922 26.55 31.0509C26.55 32.1096 27.4168 32.9708 28.4821 32.9708C29.5475 32.9708 30.4142 32.1096 30.4142 31.0509C30.4142 29.9922 29.5475 29.1309 28.4821 29.1309ZM28.4821 32.1453C27.8749 32.1453 27.3808 31.6543 27.3808 31.0509C27.3808 30.4474 27.8749 29.9565 28.4821 29.9565C29.0894 29.9565 29.5834 30.4474 29.5834 31.0509C29.5834 31.6543 29.0894 32.1453 28.4821 32.1453Z" fill="black"/>
</g>
<defs>
<filter id="filter0_d" x="0" y="0" width="64.3533" height="64" filterUnits="userSpaceOnUse" color-interpolation-filters="sRGB">
<feFlood flood-opacity="0" result="BackgroundImageFix"/>
<feColorMatrix in="SourceAlpha" type="matrix" values="0 0 0 0 0 0 0 0 0 0 0 0 0 0 0 0 0 0 127 0"/>
<feOffset dy="4"/>
<feGaussianBlur stdDeviation="2"/>
<feColorMatrix type="matrix" values="0 0 0 0 0 0 0 0 0 0 0 0 0 0 0 0 0 0 0.25 0"/>
<feBlend mode="normal" in2="BackgroundImageFix" result="effect1_dropShadow"/>
<feBlend mode="normal" in="SourceGraphic" in2="effect1_dropShadow" result="shape"/>
</filter>
<linearGradient id="paint0_linear" x1="15.0032" y1="5.5" x2="51.5032" y2="50" gradientUnits="userSpaceOnUse">
<stop stop-color="#ECECEC"/>
<stop offset="0.5" stop-color="#DEDEDE"/>
<stop offset="1" stop-color="#C5C5C5"/>
</linearGradient>
<clipPath id="clip0">
<rect width="28.1767" height="28" fill="white" transform="translate(18.0884 14)"/>
</clipPath>
</defs>
</svg>
