<svg width="65" height="64" viewBox="0 0 65 64" fill="none" xmlns="http://www.w3.org/2000/svg">
<g filter="url(#filter0_d)">
<circle cx="32.9841" cy="28" r="28" fill="url(#paint0_linear)"/>
<circle cx="32.9841" cy="28" r="27.5" stroke="#FFB600"/>
</g>
<g clip-path="url(#clip0)">
<path d="M41.3925 27.1861L33.8917 19.6852C33.8027 19.5962 33.6819 19.5463 33.556 19.5463C33.4301 19.5463 33.3094 19.5962 33.2204 19.6852L26.4913 26.4143C26.3059 26.5997 26.3059 26.9002 26.4913 27.0856C26.6767 27.2709 26.9772 27.2709 27.1626 27.0856L33.556 20.6921L40.3856 27.5217L38.7411 29.1662C38.5557 29.3517 38.5557 29.6521 38.7411 29.8375C38.8337 29.9302 38.9552 29.9765 39.0767 29.9765C39.1981 29.9765 39.3197 29.9302 39.4123 29.8375L41.3925 27.8573C41.5779 27.6719 41.5779 27.3714 41.3925 27.1861Z" fill="black"/>
<path d="M38.0715 30.5069C37.8861 30.3217 37.5856 30.3217 37.4002 30.507L31.2558 36.6515L24.4262 29.8219L25.8284 28.4197C26.0138 28.2342 26.0138 27.9338 25.8284 27.7484C25.643 27.5631 25.3425 27.5631 25.1572 27.7484L23.4193 29.4863C23.2339 29.6717 23.2339 29.9722 23.4193 30.1575L30.9202 37.6583C31.0128 37.751 31.1344 37.7973 31.2558 37.7973C31.3773 37.7973 31.4988 37.751 31.5914 37.6583L38.0716 31.1782C38.2569 30.9928 38.2569 30.6923 38.0715 30.5069Z" fill="black"/>
<path d="M46.6909 16.1997C44.9666 14.4754 42.1608 14.4753 40.4365 16.1997C40.0869 16.5493 39.8038 16.9478 39.59 17.3861L33.7016 16.3321C33.5275 16.301 33.3495 16.2851 33.1729 16.2851C32.3717 16.2851 31.6184 16.5971 31.0517 17.1638L20.8628 27.3527C20.2962 27.9193 19.9841 28.6726 19.9841 29.4739C19.9841 30.2752 20.2962 31.0285 20.8628 31.5952L29.4825 40.215C30.0491 40.7815 30.8024 41.0936 31.6037 41.0936C31.6039 41.0936 31.6039 41.0936 31.604 41.0936C32.4052 41.0936 33.1585 40.7815 33.7251 40.2149L43.914 30.0261C44.6076 29.3324 44.9186 28.3418 44.7456 27.3762L44.0903 23.7149C45.0414 23.6017 45.9626 23.1823 46.6909 22.4541C48.4152 20.7298 48.4152 17.924 46.6909 16.1997ZM43.2427 29.3548L33.0538 39.5437C32.6665 39.931 32.1517 40.1443 31.604 40.1443C31.604 40.1443 31.6039 40.1443 31.6038 40.1443C31.056 40.1443 30.5411 39.931 30.1537 39.5437L21.534 30.9239C21.1467 30.5366 20.9335 30.0216 20.9335 29.474C20.9335 28.9262 21.1468 28.4113 21.5341 28.0239L31.7229 17.835C32.1103 17.4477 32.6252 17.2344 33.1728 17.2344C33.2935 17.2344 33.4152 17.2452 33.5342 17.2666L40.8452 18.5752C41.686 18.7257 42.352 19.3917 42.5024 20.2324L42.952 22.7439C42.4319 22.6516 41.9292 22.4408 41.4875 22.1111C41.9781 21.4052 41.9096 20.4256 41.2809 19.7968C40.9387 19.4547 40.4838 19.2663 39.9999 19.2663C39.5159 19.2663 39.0611 19.4547 38.7189 19.7968C38.0125 20.5032 38.0125 21.6525 38.7189 22.3588C39.061 22.701 39.5159 22.8894 39.9999 22.8894C40.2598 22.8894 40.5112 22.8346 40.7414 22.7312C41.4386 23.3101 42.273 23.642 43.1278 23.7259L43.8111 27.5436C43.9294 28.2035 43.7169 28.8806 43.2427 29.3548ZM40.791 21.4192C40.5232 21.0663 40.3282 20.6694 40.2129 20.2428C40.3617 20.2805 40.4983 20.3567 40.6097 20.4681C40.8664 20.7248 40.9264 21.1043 40.791 21.4192ZM39.9951 21.9399C39.7665 21.9386 39.5519 21.8493 39.3902 21.6876C39.0819 21.3793 39.0572 20.8943 39.3141 20.5566C39.4571 21.0554 39.6867 21.5211 39.9951 21.9399ZM43.9229 22.7796L43.437 20.0651C43.2169 18.8352 42.2425 17.861 41.0126 17.6407L40.5714 17.5617C40.7192 17.3115 40.8985 17.0802 41.1078 16.871C42.4621 15.5167 44.6655 15.5168 46.0198 16.871C47.374 18.2251 47.374 20.4287 46.0198 21.7828C45.4338 22.3687 44.689 22.7005 43.9229 22.7796Z" fill="black"/>
<path d="M30.5154 28.7695L30.8005 26.4492H33.5623V27.2305H31.5857L31.4568 28.1797C31.7172 28.0677 31.9789 28.0117 32.2419 28.0117C32.7237 28.0117 33.1039 28.1445 33.3826 28.4102C33.6612 28.6732 33.8005 29.0404 33.8005 29.5117C33.8005 29.9727 33.6482 30.3464 33.3435 30.6328C33.0414 30.9193 32.6261 31.0625 32.0974 31.0625C31.6261 31.0625 31.2276 30.9414 30.9021 30.6992C30.5766 30.4544 30.4047 30.138 30.3865 29.75H31.3162C31.337 29.9427 31.4177 30.0833 31.5583 30.1719C31.699 30.2604 31.8787 30.3047 32.0974 30.3047C32.3318 30.3047 32.5167 30.2357 32.6521 30.0977C32.7875 29.9596 32.8552 29.7604 32.8552 29.5C32.8552 29.2578 32.7784 29.0664 32.6248 28.9258C32.4711 28.7826 32.2641 28.7109 32.0037 28.7109C31.7589 28.7109 31.5583 28.7617 31.4021 28.8633L31.2693 28.9531L30.5154 28.7695Z" fill="black"/>
</g>
<defs>
<filter id="filter0_d" x="0.984131" y="0" width="64" height="64" filterUnits="userSpaceOnUse" color-interpolation-filters="sRGB">
<feFlood flood-opacity="0" result="BackgroundImageFix"/>
<feColorMatrix in="SourceAlpha" type="matrix" values="0 0 0 0 0 0 0 0 0 0 0 0 0 0 0 0 0 0 127 0"/>
<feOffset dy="4"/>
<feGaussianBlur stdDeviation="2"/>
<feColorMatrix type="matrix" values="0 0 0 0 0 0 0 0 0 0 0 0 0 0 0 0 0 0 0.25 0"/>
<feBlend mode="normal" in2="BackgroundImageFix" result="effect1_dropShadow"/>
<feBlend mode="normal" in="SourceGraphic" in2="effect1_dropShadow" result="shape"/>
</filter>
<linearGradient id="paint0_linear" x1="15.9183" y1="5.5" x2="52.4626" y2="49.7746" gradientUnits="userSpaceOnUse">
<stop stop-color="#ECECEC"/>
<stop offset="0.5" stop-color="#DEDEDE"/>
<stop offset="1" stop-color="#C5C5C5"/>
</linearGradient>
<clipPath id="clip0">
<rect width="28" height="28" fill="white" transform="translate(19.9841 14)"/>
</clipPath>
</defs>
</svg>
