<svg width="20" height="20" viewBox="0 0 20 20" fill="none" xmlns="http://www.w3.org/2000/svg">
<path d="M20 18.6704L14.248 12.9184L11.7115 10.3819L4.06412 2.73456L2.73456 1.405L1.32956 0L0 1.32956L2.17822 3.51721V15.9359C2.17822 16.9731 3.02687 17.8218 4.06412 17.8218H16.4828L18.661 20L20 18.6704ZM4.06412 15.9359V5.40311L10.5139 11.8529L9.72183 12.843L7.83593 10.2782L5.00707 14.05H12.711L14.5969 15.9359H4.06412ZM6.73267 2.73456L4.84677 0.848656H17.2654C18.3027 0.848656 19.1513 1.69731 19.1513 2.73456V15.1532L17.2654 13.2673V2.73456H6.73267Z" fill="#323232"/>
</svg>
