<svg width="200" height="200" viewBox="0 0 200 200" fill="none" xmlns="http://www.w3.org/2000/svg">
<path d="M100 200C155.228 200 200 155.228 200 100C200 44.7715 155.228 0 100 0C44.7715 0 0 44.7715 0 100C0 155.228 44.7715 200 100 200Z" fill="#B269CD"/>
<path d="M107.312 199.733C150.352 196.622 185.837 166.273 196.622 125.839L157.58 86.7961L157.43 86.9438L142.808 72.3223L126.111 102.397L59.3152 151.909L107.312 199.733Z" fill="#593480"/>
<path d="M116.257 46.1535H63.7703C60.3496 46.1535 57.5758 48.9266 57.5758 52.348V147.652C57.5758 151.072 60.3489 153.846 63.7703 153.846H136.23C139.651 153.846 142.425 151.073 142.425 147.652V72.3211L116.257 46.1535Z" fill="#FEE187"/>
<path d="M116.257 46.1535H100.224V153.846H136.23C139.65 153.846 142.423 151.073 142.423 147.651V72.3211L116.257 46.1535Z" fill="#FFC61B"/>
<path d="M122.451 72.3211H142.424L116.257 46.1535V66.1265C116.257 69.548 119.03 72.3211 122.451 72.3211Z" fill="#EAA22F"/>
<path d="M140.536 79.4027C137.471 76.3383 132.502 76.3383 129.437 79.4027L81.5332 127.306L84.325 141.264L143.361 82.2281L140.536 79.4027Z" fill="#273B7A"/>
<path d="M147.255 86.1218L143.361 82.2281L84.3246 141.264L84.5024 142.155L99.35 145.124L147.254 97.2207C150.319 94.1562 150.319 89.1871 147.255 86.1218Z" fill="#121149"/>
<path d="M99.3508 145.125L78.5637 148.094L81.5332 127.307L99.3508 145.125Z" fill="#E09112"/>
<path d="M78.6289 147.634L78.5637 148.094L99.3508 145.125L90.2445 136.018L78.6289 147.634Z" fill="#FF5419"/>
<path d="M87.225 146.857L79.8008 139.433L78.5637 148.094L87.225 146.857Z" fill="#59595B"/>
<path d="M78.6289 147.634L78.5637 148.094L87.225 146.857L83.3152 142.948L78.6289 147.634Z" fill="#272525"/>
<path d="M87.4686 133.249L93.4077 139.188L134.981 97.6146L129.042 91.6756L87.4686 133.249Z" fill="#386895"/>
<path d="M134.979 97.6107L131.812 94.4437L90.2391 136.017L93.4061 139.184L134.979 97.6107Z" fill="#273B7A"/>
<path d="M147.255 97.2207C150.319 94.1563 150.319 89.1871 147.255 86.1223L140.536 79.4031C137.471 76.3387 132.502 76.3387 129.437 79.4031L122.208 86.632L140.026 104.45L147.255 97.2207Z" fill="#E09112"/>
<path d="M143.698 82.5649L130.919 95.3434L140.025 104.45L147.254 97.2207C150.319 94.1563 150.319 89.1871 147.254 86.1223L143.698 82.5649Z" fill="#FF5419"/>
</svg>
