<svg width="200" height="200" viewBox="0 0 200 200" fill="none" xmlns="http://www.w3.org/2000/svg">
<path d="M100 200C155.228 200 200 155.228 200 100C200 44.7715 155.228 0 100 0C44.7715 0 0 44.7715 0 100C0 155.228 44.7715 200 100 200Z" fill="#B269CD"/>
<path d="M198.079 119.572L137.792 59.284L75.3649 118.35L63.4977 141.879L119.678 198.059C159.155 190.181 190.243 159.064 198.079 119.572Z" fill="#593480"/>
<path d="M100 155.555C130.682 155.555 155.556 130.682 155.556 100C155.556 69.3176 130.682 44.4445 100 44.4445C69.3176 44.4445 44.4446 69.3176 44.4446 100C44.4446 130.682 69.3176 155.555 100 155.555Z" fill="#FFC61B"/>
<path d="M155.555 100C155.555 69.318 130.682 44.4445 100 44.4445V155.555C130.682 155.555 155.555 130.682 155.555 100Z" fill="#EAA22F"/>
<path d="M99.9981 80.4715C97.6949 80.4715 95.4383 79.5348 93.8094 77.9051C92.1805 76.2754 91.2438 74.0195 91.2438 71.7172C91.2438 69.4148 92.1797 67.1574 93.8094 65.5285C95.4391 63.8996 97.6957 62.9629 99.9981 62.9629C102.308 62.9629 104.563 63.8988 106.186 65.5285C107.816 67.1582 108.752 69.4148 108.752 71.7172C108.752 74.0195 107.816 76.2762 106.186 77.9051C104.563 79.5348 102.308 80.4715 99.9981 80.4715Z" fill="white"/>
<path d="M108.752 71.7172C108.752 69.4141 107.816 67.1574 106.186 65.5285C104.564 63.8996 102.309 62.9637 100 62.9637V80.4723C102.309 80.4715 104.564 79.5356 106.186 77.9067C107.816 76.2762 108.752 74.0203 108.752 71.7172Z" fill="#D0D1D3"/>
<path d="M108.081 127.946H106.734V95.8753C106.734 92.157 103.718 89.1414 100 89.1414C96.2817 89.1414 93.266 92.157 93.266 95.8753V127.946H91.9192C88.9442 127.946 86.532 130.358 86.532 133.333C86.532 136.308 88.9442 138.72 91.9192 138.72H108.081C111.056 138.72 113.468 136.308 113.468 133.333C113.468 130.358 111.056 127.946 108.081 127.946Z" fill="white"/>
<path d="M108.081 127.946H106.734V95.8753C106.734 92.157 103.718 89.1414 100 89.1414V138.721H108.081C111.056 138.721 113.468 136.309 113.468 133.334C113.468 130.358 111.056 127.946 108.081 127.946Z" fill="#D0D1D3"/>
</svg>
