<svg width="200" height="200" viewBox="0 0 200 200" fill="none" xmlns="http://www.w3.org/2000/svg">
<path d="M100 200C155.228 200 200 155.228 200 100C200 44.7715 155.228 0 100 0C44.7715 0 0 44.7715 0 100C0 155.228 44.7715 200 100 200Z" fill="#B269CD"/>
<path d="M104.404 199.898C149.259 197.954 186.446 166.466 196.995 124.404L161.751 89.1586L66.8187 83.7281L45.9258 99.3942L85.043 138.511L57.525 153.02L104.404 199.898Z" fill="#593480"/>
<path d="M136.251 155.892H63.748C59.2234 155.892 55.5554 152.224 55.5554 147.699V89.2254L99.9999 55.8922L144.444 89.2254V147.699C144.444 152.224 140.777 155.892 136.251 155.892Z" fill="#D35933"/>
<path d="M100 55.8922V155.892H136.251C140.776 155.892 144.445 152.224 144.445 147.699V89.2254L100 55.8922Z" fill="#B54324"/>
<path d="M154.074 99.3938L100 58.8383L45.9258 99.3938L38.2493 89.1582L100 42.8453L161.751 89.1582L154.074 99.3938Z" fill="#FFC61B"/>
<path d="M161.751 89.1582L100 42.8453V58.8383L154.074 99.3938L161.751 89.1582Z" fill="#EAA22F"/>
<path d="M111.111 122.559H88.889V155.892H111.111V122.559Z" fill="white"/>
<path d="M111.111 122.559H100V155.892H111.111V122.559Z" fill="#D0D1D3"/>
<path d="M81.65 99.3265H66.8352V114.141H81.65V99.3265Z" fill="white"/>
<path d="M133.165 99.3265H118.35V114.141H133.165V99.3265Z" fill="#D0D1D3"/>
</svg>
