<svg width="200" height="200" viewBox="0 0 200 200" fill="none" xmlns="http://www.w3.org/2000/svg">
<g clip-path="url(#clip0)">
<path d="M100.001 199.999C155.229 199.999 200 155.228 200 99.9996C200 44.7713 155.229 0 100.001 0C44.7723 0 0.000976562 44.7713 0.000976562 99.9996C0.000976562 155.228 44.7723 199.999 100.001 199.999Z" fill="#B269CD"/>
<path d="M199.934 103.444L138.247 41.7573L106.215 45.749L102.266 98.0008L49.4947 149.751L99.7402 199.996C99.8269 199.996 99.9132 200 99.9996 200C154.075 199.999 198.118 157.076 199.934 103.444Z" fill="#593480"/>
<path d="M150.505 68.9423H49.4951V149.75H150.505V68.9423Z" fill="#D0D1D3"/>
<path d="M150.505 68.9423H99.7777V149.75H150.505V68.9423Z" fill="#A6A8AA"/>
<path d="M144.996 74.8212H55.0034V143.878H144.996V74.8212Z" fill="#8BC180"/>
<path d="M96.47 74.82L55.0049 116.285V143.874H58.6373L127.691 74.82H96.47Z" fill="#FEE187"/>
<path d="M99.7758 74.82V102.736L127.691 74.82H99.7758Z" fill="#FFC61B"/>
<path d="M127.691 74.82L100.816 101.695L142.996 143.874H144.995V74.82H127.691Z" fill="#477F3C"/>
<path d="M58.6372 143.874H112.794L85.7156 116.795L58.6372 143.874Z" fill="#6CAF5F"/>
<path d="M99.7758 130.855V143.874H112.794L99.7758 130.855Z" fill="#477F3C"/>
<path d="M100.816 101.695L85.7157 116.795L112.795 143.874H142.996L100.816 101.695Z" fill="white"/>
<path d="M142.996 143.874L100.816 101.695L99.7758 102.736V130.855L112.794 143.874H142.996Z" fill="#D0D1D3"/>
<path d="M55.0049 74.82V116.285L96.4699 74.82H55.0049Z" fill="#38C6D9"/>
<path d="M120.202 33.6659C106.847 33.6659 96.0208 44.492 96.0208 57.847C96.0208 78.3641 120.202 94.1188 120.202 94.1188C120.202 94.1188 144.383 78.8528 144.383 57.847C144.383 44.492 133.557 33.6659 120.202 33.6659ZM120.202 66.915C115.194 66.915 111.134 62.8552 111.134 57.847C111.134 52.8389 115.194 48.7791 120.202 48.7791C125.21 48.7791 129.27 52.8389 129.27 57.847C129.27 62.8548 125.21 66.915 120.202 66.915Z" fill="#D35933"/>
<path d="M120.202 33.6659C120.126 33.6659 120.052 33.6706 119.978 33.6713V48.7904C120.053 48.7885 120.126 48.7791 120.202 48.7791C125.21 48.7791 129.27 52.8389 129.27 57.847C129.27 62.8552 125.21 66.915 120.202 66.915C120.126 66.915 120.053 66.9056 119.978 66.9036V93.9688C120.117 94.0629 120.202 94.1188 120.202 94.1188C120.202 94.1188 144.383 78.8528 144.383 57.847C144.383 44.492 133.557 33.6659 120.202 33.6659Z" fill="#B54324"/>
</g>
<defs>
<clipPath id="clip0">
<rect width="200" height="200" fill="white"/>
</clipPath>
</defs>
</svg>
