<svg width="200" height="200" viewBox="0 0 200 200" fill="none" xmlns="http://www.w3.org/2000/svg">
<g clip-path="url(#clip0)">
<path d="M100 200C155.228 200 200 155.228 200 100C200 44.7715 155.228 0 100 0C44.7715 0 0 44.7715 0 100C0 155.228 44.7715 200 100 200Z" fill="#B269CD"/>
<path d="M194.845 131.769L111.687 48.6531L100.054 121.603L42.27 156.004L85.1711 198.905C90.0094 199.623 94.961 200 100 200C144.123 200 181.568 171.423 194.845 131.769Z" fill="#593480"/>
<path d="M144.76 156.004H42.27V138.633C42.27 126.286 50.1711 115.324 61.884 111.42L80.7036 105.146H106.326L125.145 111.42C136.859 115.324 144.759 126.286 144.759 138.633V156.004H144.76Z" fill="#EAA22F"/>
<path d="M144.76 138.633C144.76 126.286 136.859 115.324 125.146 111.42L106.326 105.146H93.491V156.003H144.76V138.633Z" fill="#E09112"/>
<path d="M106.326 105.147L93.5145 117.957L80.7036 105.147V92.3352H106.326V105.147Z" fill="#F2D175"/>
<path d="M93.491 92.3352V117.934L93.5144 117.957L106.326 105.147V92.3352H93.491Z" fill="#E2BF69"/>
<path d="M67.8922 66.7133C67.8922 52.5625 79.3637 41.091 93.5145 41.091C107.665 41.091 119.137 52.5625 119.137 66.7133C119.137 80.8641 107.665 105.147 93.5145 105.147C79.3637 105.147 67.8922 80.8641 67.8922 66.7133Z" fill="#FFEDB5"/>
<path d="M93.5145 41.091C93.5062 41.091 93.4984 41.0918 93.4902 41.0918V105.146C93.4984 105.146 93.5062 105.147 93.5145 105.147C107.665 105.147 119.137 80.8641 119.137 66.7133C119.137 52.5621 107.665 41.091 93.5145 41.091Z" fill="#FEE187"/>
<path d="M140.195 133.401C151.367 133.401 160.424 124.344 160.424 113.172C160.424 102 151.367 92.943 140.195 92.943C129.023 92.943 119.966 102 119.966 113.172C119.966 124.344 129.023 133.401 140.195 133.401Z" fill="#D35933"/>
<path d="M154.498 98.866C150.502 94.8695 145.249 92.8977 140.012 92.9449V133.4C145.25 133.446 150.502 131.475 154.498 127.479C162.399 119.577 162.399 106.767 154.498 98.866Z" fill="#B54324"/>
<path d="M149.902 109.805H143.559V103.462C143.559 101.602 142.052 100.095 140.192 100.095C138.332 100.095 136.825 101.602 136.825 103.462V109.805H130.481C128.622 109.805 127.114 111.312 127.114 113.173C127.114 115.033 128.621 116.54 130.481 116.54H136.825V122.883C136.825 124.743 138.332 126.25 140.192 126.25C142.052 126.25 143.559 124.743 143.559 122.883V116.54H149.902C151.762 116.54 153.27 115.033 153.27 113.173C153.27 111.312 151.762 109.805 149.902 109.805Z" fill="white"/>
<path d="M149.902 109.805H143.559V103.462C143.559 101.602 142.052 100.095 140.192 100.095C140.13 100.095 140.072 100.11 140.011 100.113V126.232C140.072 126.235 140.13 126.25 140.192 126.25C142.052 126.25 143.559 124.743 143.559 122.883V116.539H149.902C151.762 116.539 153.27 115.032 153.27 113.172C153.27 111.312 151.762 109.805 149.902 109.805Z" fill="#D0D1D3"/>
<path d="M119.138 66.7133C119.138 52.5625 107.666 41.091 93.5153 41.091C79.3645 41.091 67.8922 52.5625 67.8922 66.7133C67.8922 72.3605 69.7231 79.6184 72.818 86.3051C72.0926 82.4559 72.2867 78.5207 72.6672 75.5516C88.9313 74.2754 98.9789 63.9813 98.9789 63.9813C98.9789 63.9813 106.612 70.318 114.063 73.5656C114.591 76.5965 115.112 81.5254 114.205 86.3184C117.304 79.6281 119.138 72.3637 119.138 66.7133Z" fill="#FFC61B"/>
<path d="M119.137 66.7133C119.137 52.5625 107.666 41.091 93.5152 41.091C93.507 41.091 93.4992 41.0918 93.491 41.0918V68.3004C97.0406 65.9656 98.9792 63.9813 98.9792 63.9813C98.9792 63.9813 106.612 70.318 114.063 73.5656C114.591 76.5965 115.112 81.5254 114.205 86.3184C117.303 79.6281 119.137 72.3637 119.137 66.7133Z" fill="#EAA22F"/>
</g>
<defs>
<clipPath id="clip0">
<rect width="200" height="200" fill="white"/>
</clipPath>
</defs>
</svg>
