<svg width="200" height="200" viewBox="0 0 200 200" fill="none" xmlns="http://www.w3.org/2000/svg">
<path d="M100 200C155.228 200 200 155.228 200 100C200 44.7715 155.228 0 100 0C44.7715 0 0 44.7715 0 100C0 155.228 44.7715 200 100 200Z" fill="#B269CD"/>
<path d="M196.331 126.914L116.757 47.3395L101.08 107.141L48.7546 156.003L92.4707 199.719C94.9562 199.904 97.4668 200 99.9992 200C145.903 200 184.578 169.069 196.331 126.914Z" fill="#593480"/>
<path d="M151.245 156.004H48.7555V138.633C48.7555 126.286 56.6567 115.324 68.3696 111.42L87.1891 105.146H112.811L131.631 111.42C143.344 115.324 151.245 126.286 151.245 138.633V156.003H151.245V156.004Z" fill="#EAA22F"/>
<path d="M151.245 138.633C151.245 126.286 143.344 115.324 131.63 111.42L112.811 105.146H100V156.003H151.245V138.633Z" fill="#E09112"/>
<path d="M112.811 105.147L100 117.957L87.1887 105.147V92.3352H112.811V105.147Z" fill="#F2D175"/>
<path d="M112.811 92.3352H100V117.957L112.811 105.147V92.3352Z" fill="#E0BE68"/>
<path d="M74.3777 66.7133C74.3777 52.5625 85.8492 41.091 100 41.091C114.151 41.091 125.622 52.5625 125.622 66.7133C125.622 80.8641 114.151 105.147 100 105.147C85.8492 105.147 74.3777 80.8641 74.3777 66.7133Z" fill="#FFEDB5"/>
<path d="M125.622 66.7133C125.622 52.5625 114.151 41.091 100 41.091V105.147C114.151 105.146 125.622 80.8641 125.622 66.7133Z" fill="#FEE187"/>
<path d="M125.622 66.7133C125.622 52.5625 114.151 41.091 100 41.091C85.8492 41.091 74.3777 52.5625 74.3777 66.7133C74.3777 72.3605 76.2086 79.6184 79.3035 86.3051C78.5781 82.4559 78.7723 78.5207 79.1527 75.5516C95.4168 74.2754 105.464 63.9813 105.464 63.9813C105.464 63.9813 113.097 70.318 120.548 73.5656C121.076 76.5965 121.597 81.5254 120.691 86.3184C123.789 79.6281 125.622 72.3637 125.622 66.7133Z" fill="#FFC61B"/>
<path d="M125.622 66.7133C125.622 52.5625 114.151 41.091 100 41.091V68.2848C103.535 65.9566 105.464 63.9813 105.464 63.9813C105.464 63.9813 113.097 70.318 120.548 73.5656C121.076 76.5965 121.597 81.5254 120.691 86.3184C123.789 79.6281 125.622 72.3637 125.622 66.7133Z" fill="#EAA22F"/>
</svg>
