<svg width="200" height="200" viewBox="0 0 200 200" fill="none" xmlns="http://www.w3.org/2000/svg">
<path d="M100 200C155.228 200 200 155.228 200 100C200 44.7715 155.228 0 100 0C44.7715 0 0 44.7715 0 100C0 155.228 44.7715 200 100 200Z" fill="#B269CD"/>
<path d="M199.416 110.821L147.579 58.9844L132.268 74.7473L108.129 76.0383L80.5761 48.4848L75.9261 76.0383L71.2761 159.596L111.068 199.387C157.535 194.27 194.411 157.322 199.416 110.821Z" fill="#593480"/>
<path d="M80.5723 48.4848H71.2726V159.596H80.5723V48.4848Z" fill="#FFC61B"/>
<path d="M147.579 105.482C122.145 73.7356 96.7105 128.473 71.2761 96.7274C71.2761 81.2285 71.2761 65.7293 71.2761 50.2305C96.7105 81.9766 122.145 27.2383 147.579 58.9844C147.579 74.4836 147.579 89.9824 147.579 105.482Z" fill="#D35933"/>
<path d="M108.867 54.8613V101.358C121.771 95.5305 134.675 89.3758 147.579 105.482C147.579 89.9832 147.579 74.484 147.579 58.9852C134.675 42.8781 121.771 49.0328 108.867 54.8613Z" fill="#B54324"/>
</svg>
