<svg width="200" height="200" viewBox="0 0 200 200" fill="none" xmlns="http://www.w3.org/2000/svg">
<path d="M100 200C155.228 200 200 155.228 200 100C200 44.7715 155.228 0 100 0C44.7715 0 0 44.7715 0 100C0 155.228 44.7715 200 100 200Z" fill="#B269CD"/>
<path d="M114.23 198.988C158.069 192.741 192.741 158.069 198.987 114.23L150.854 66.0977L142.371 70.4531L111.986 40.0672L66.0867 94.8188L40.0672 111.987L69.7863 141.706L66.0969 150.854L114.23 198.988Z" fill="#593480"/>
<path d="M159.933 111.987V88.0137H146.436C145.304 83.6148 143.554 79.4668 141.3 75.652L150.855 66.0973L133.904 49.1457L124.348 58.7C120.534 56.4461 116.385 54.6965 111.986 53.5648V40.068H88.0133V53.5648C83.6144 54.6969 79.4664 56.4465 75.6512 58.7L66.0969 49.1457L49.1453 66.0973L58.6996 75.6516C56.4457 79.4664 54.6961 83.6152 53.5644 88.0137H40.0676V111.987H53.5644C54.6965 116.386 56.4461 120.534 58.6996 124.348L49.1445 133.904L66.0961 150.855L75.6512 141.3C79.466 143.554 83.6141 145.304 88.0129 146.436V159.934H111.986V146.437C116.385 145.305 120.533 143.555 124.348 141.301L133.903 150.855L150.854 133.904L141.3 124.349C143.553 120.534 145.303 116.385 146.435 111.987H159.933V111.987ZM100 117.98C90.0699 117.98 82.0203 109.93 82.0203 100C82.0203 90.0703 90.0703 82.0203 100 82.0203C109.93 82.0203 117.98 90.0703 117.98 100C117.98 109.93 109.93 117.98 100 117.98Z" fill="white"/>
<path d="M159.933 111.987V88.0137H146.436C145.304 83.6149 143.554 79.4668 141.3 75.652L150.855 66.0977L133.903 49.1461L124.348 58.7004C120.534 56.4465 116.385 54.6969 111.987 53.5649V40.0672H99.7758V82.0262C99.8504 82.0254 99.9246 82.0207 100 82.0207C109.93 82.0207 117.98 90.0707 117.98 100C117.98 109.93 109.93 117.98 100 117.98C99.9246 117.98 99.8504 117.975 99.7758 117.975V159.932H111.986V146.435C116.385 145.303 120.533 143.554 124.348 141.3L133.903 150.854L150.854 133.902L141.3 124.347C143.553 120.532 145.303 116.384 146.435 111.986H159.933V111.987Z" fill="#D0D1D3"/>
<path d="M99.9999 137.037C79.5777 137.037 62.9628 120.422 62.9628 100C62.9628 79.5777 79.5777 62.9629 99.9999 62.9629C120.422 62.9629 137.037 79.5777 137.037 100C137.037 120.422 120.422 137.037 99.9999 137.037ZM99.9999 70.3703C83.6621 70.3703 70.3703 83.6617 70.3703 100C70.3703 116.338 83.6617 129.63 99.9999 129.63C116.338 129.63 129.63 116.338 129.63 100C129.63 83.6617 116.338 70.3703 99.9999 70.3703Z" fill="#FFC61B"/>
<path d="M100 62.9629C99.9246 62.9629 99.8511 62.9684 99.7758 62.9684V70.3758C99.8511 70.375 99.9246 70.3703 100 70.3703C116.338 70.3703 129.63 83.6617 129.63 100C129.63 116.338 116.338 129.63 100 129.63C99.9246 129.63 99.8511 129.624 99.7758 129.624V137.032C99.8511 137.032 99.9246 137.037 100 137.037C120.422 137.037 137.037 120.422 137.037 100C137.037 79.5777 120.422 62.9629 100 62.9629Z" fill="#EAA22F"/>
</svg>
