<svg width="200" height="200" viewBox="0 0 200 200" fill="none" xmlns="http://www.w3.org/2000/svg">
<path d="M100 200C155.228 200 200 155.228 200 100C200 44.7715 155.228 0 100 0C44.7715 0 0 44.7715 0 100C0 155.228 44.7715 200 100 200Z" fill="white"/>
<path d="M198.022 119.873L143.288 65.1387L97.082 111.755L60.2133 138.607L119.942 198.009C159.193 190.065 190.105 159.135 198.022 119.873Z" fill="#D9D9D9"/>
<path d="M99.4944 154.882C130.177 154.882 155.05 130.009 155.05 99.3265C155.05 68.6441 130.177 43.7711 99.4944 43.7711C68.812 43.7711 43.939 68.6441 43.939 99.3265C43.939 130.009 68.812 154.882 99.4944 154.882Z" fill="#FFC61B"/>
<path d="M99.4946 43.7703C99.4192 43.7703 99.3458 43.7758 99.2704 43.7758V154.875C99.3458 154.875 99.4192 154.881 99.4946 154.881C130.177 154.881 155.05 130.007 155.05 99.3254C155.05 68.6434 130.177 43.7703 99.4946 43.7703Z" fill="#FFB600"/>
<path d="M89.0878 124.215C87.5183 124.215 86.0077 123.606 84.8757 122.512L73.06 111.091C70.6534 108.765 70.5882 104.929 72.9147 102.522C75.2405 100.114 79.0768 100.049 81.4843 102.376L88.8491 109.494L118.282 77.727C120.556 75.272 124.391 75.1251 126.846 77.4005C129.301 79.6751 129.448 83.5095 127.173 85.9649L110.353 104.119L93.5335 122.273C92.4257 123.469 90.8835 124.168 89.2546 124.213C89.1987 124.214 89.1429 124.215 89.0878 124.215Z" fill="#D35933"/>
<path d="M126.845 77.4C124.391 75.1246 120.556 75.2715 118.281 77.7266L99.27 98.2457V116.08L127.172 85.964C129.447 83.5097 129.301 79.6746 126.845 77.4Z" fill="#B54324"/>
</svg>
