<svg width="200" height="200" viewBox="0 0 200 200" fill="none" xmlns="http://www.w3.org/2000/svg">
<path d="M100 200C155.228 200 200 155.228 200 100C200 44.7715 155.228 0 100 0C44.7715 0 0 44.7715 0 100C0 155.228 44.7715 200 100 200Z" fill="white"/>
<path d="M127.93 196.053C168.55 184.189 198.489 147.461 200 103.541L148.878 52.6316L93.0746 85.2338L58.1082 101.377L83.5126 125.334L70.3566 138.929L127.93 196.053Z" fill="#D5D5D5"/>
<path d="M79.7801 140.789H75.4183C72.0688 140.789 69.2333 138.314 68.7767 134.991L62.1621 86.8421H80.0591L86.4229 133.161C86.9761 137.195 83.8461 140.789 79.7801 140.789Z" fill="#E09112"/>
<path d="M139.153 127.055L82.4324 104.292V69.3711L139.926 52.9409C144.974 51.4979 150 55.2857 150 60.5321V119.728C150 125.319 144.345 129.138 139.153 127.055Z" fill="#FFC61B"/>
<path d="M82.4324 86.8421V104.458L139.153 127.059C144.345 129.128 150 125.335 150 119.785V86.8421H82.4324Z" fill="#EAA22F"/>
<path d="M144.566 51.4827L128.378 56.1141V122.3L144.15 128.636C146.95 129.761 150 127.698 150 124.68V55.5815C150 52.7486 147.289 50.7039 144.566 51.4827Z" fill="#FEE187"/>
<path d="M128.378 86.8421V122.386L144.15 128.64C146.95 129.751 150 127.714 150 124.735V86.8421H128.378Z" fill="#FFC61B"/>
<path d="M65.5063 103.947H82.4324V69.7368H65.5063C59.9276 69.7368 55.4054 74.1815 55.4054 79.6645V94.0196C55.4046 99.5019 59.9276 103.947 65.5063 103.947Z" fill="#D35933"/>
<path d="M55.6949 86.532V94.1434C55.6949 99.7434 60.2344 104.283 65.8344 104.283H82.825V86.532H55.6949Z" fill="#B54324"/>
<path d="M82.8215 69.3403H69.2594V104.281H82.8215V69.3403Z" fill="#B54324"/>
<path d="M82.4325 86.8421H68.9189V103.947H82.4325V86.8421Z" fill="#840000"/>
</svg>
