<svg width="200" height="200" viewBox="0 0 200 200" fill="none" xmlns="http://www.w3.org/2000/svg">
<g clip-path="url(#clip0)">
<path d="M200 100C200 155.229 155.229 200 100 200C44.7708 200 0 155.229 0 100C0 44.7708 44.7708 0 100 0C155.229 0 200 44.7708 200 100Z" fill="white"/>
<path d="M120 198C166.5 189 200 152.682 200 100.5C200 97.5784 200.235 99.8574 200 97L144 54L108 67L84.5 165L120 198Z" fill="#D9D9D9"/>
<path d="M111.872 72.8994C115.608 69.1037 121.665 69.1037 125.4 72.8994L138.081 66.8865L144 54H93.2723L34 114.228L59.3632 140L88.9993 116.759L111.872 86.6453C108.137 82.8496 108.137 76.6952 111.872 72.8994Z" fill="#FFC61B"/>
<path d="M144 105.189V54L125.32 72.7689C129.072 76.5385 129.072 82.6504 125.32 86.4199C121.569 90.1881 115.486 90.1881 111.734 86.4199L59 139.406L84.472 165L144 105.189Z" fill="#FFB600"/>
</g>
<defs>
<clipPath id="clip0">
<rect width="200" height="200" fill="white"/>
</clipPath>
</defs>
</svg>
