<svg width="200" height="200" viewBox="0 0 200 200" fill="none" xmlns="http://www.w3.org/2000/svg">
<path d="M100 200C155.228 200 200 155.228 200 100C200 44.7715 155.228 0 100 0C44.7715 0 0 44.7715 0 100C0 155.228 44.7715 200 100 200Z" fill="white"/>
<path d="M198.088 119.533L139.834 61.2801L95.6231 110.213L59.3879 137.904L119.565 198.081C159.109 190.236 190.255 159.081 198.088 119.533Z" fill="#D9D9D9"/>
<path d="M155.555 100C155.555 69.3176 130.682 44.4446 100 44.4446C69.3176 44.4446 44.4446 69.3176 44.4446 100C44.4446 130.682 69.3176 155.555 100 155.555C130.682 155.555 155.555 130.682 155.555 100Z" fill="#FFC61B"/>
<path d="M99.6094 155.637C99.6848 155.637 99.759 155.642 99.8336 155.642C130.516 155.642 155.389 130.769 155.389 100.087C155.389 69.4047 130.516 44.5312 99.8336 44.5312C99.7582 44.5312 99.684 44.5367 99.6094 44.5367V155.637Z" fill="#FFB600"/>
<path d="M94.3958 76.8644L71.1212 117.268C69.7157 119.709 70.177 122.797 72.2345 124.721C74.2923 126.644 77.4048 126.896 79.745 125.329L99.6474 112.001L119.55 125.328C121.891 126.895 125.003 126.643 127.06 124.72C128.322 123.541 128.982 121.926 128.982 120.289C128.982 119.256 128.718 118.212 128.174 117.267L104.899 76.8636C103.817 74.9855 101.815 73.8281 99.647 73.8281C97.4786 73.8289 95.4782 74.9863 94.3958 76.8644Z" fill="#D35933"/>
<path d="M99.6387 112.151L99.8047 112.109L119.727 125.391C122.068 126.958 125.218 126.643 127.276 124.72C128.537 123.541 129.198 121.926 129.198 120.289C129.198 119.256 128.933 118.212 128.389 117.267L105.114 76.8637C104.033 74.9855 102.03 73.8281 99.8625 73.8281C99.7871 73.8281 99.7129 73.8402 99.6383 73.843L99.6387 112.151Z" fill="#B54324"/>
</svg>
