<svg width="200" height="200" viewBox="0 0 200 200" fill="none" xmlns="http://www.w3.org/2000/svg">
<path d="M100 200C155.228 200 200 155.228 200 100C200 44.7715 155.228 0 100 0C44.7715 0 0 44.7715 0 100C0 155.228 44.7715 200 100 200Z" fill="#B269CD"/>
<path d="M198.022 119.873L143.288 65.1387L97.082 111.755L60.2133 138.607L119.942 198.009C159.193 190.065 190.105 159.135 198.022 119.873Z" fill="#593480"/>
<path d="M99.4949 154.882C130.177 154.882 155.05 130.009 155.05 99.3265C155.05 68.6441 130.177 43.7711 99.4949 43.7711C68.8125 43.7711 43.9395 68.6441 43.9395 99.3265C43.9395 130.009 68.8125 154.882 99.4949 154.882Z" fill="#6CAF5F"/>
<path d="M99.4949 43.7703C99.4195 43.7703 99.3461 43.7758 99.2707 43.7758V154.875C99.3461 154.875 99.4195 154.881 99.4949 154.881C130.178 154.881 155.05 130.007 155.05 99.3254C155.05 68.6434 130.178 43.7703 99.4949 43.7703Z" fill="#477F3C"/>
<path d="M89.0883 124.215C87.5187 124.215 86.0082 123.606 84.8762 122.512L73.0605 111.091C70.6539 108.765 70.5886 104.929 72.9152 102.522C75.241 100.114 79.0773 100.049 81.4847 102.376L88.8496 109.494L118.282 77.727C120.557 75.2719 124.392 75.125 126.846 77.4004C129.302 79.675 129.448 83.5094 127.173 85.9649L93.534 122.273C92.4262 123.469 90.884 124.168 89.2551 124.213C89.1992 124.214 89.1433 124.215 89.0883 124.215Z" fill="white"/>
<path d="M126.846 77.4C124.391 75.1246 120.556 75.2715 118.281 77.7266L99.2703 98.2457V116.08L127.173 85.9641C129.448 83.5098 129.302 79.6746 126.846 77.4Z" fill="#D0D1D3"/>
</svg>
