<svg width="65" height="64" viewBox="0 0 65 64" fill="none" xmlns="http://www.w3.org/2000/svg">
<g filter="url(#filter0_d)">
<ellipse cx="32.1767" cy="28" rx="28.1767" ry="28" fill="url(#paint0_linear)"/>
<path d="M59.8533 28C59.8533 43.1849 47.465 55.5 32.1767 55.5C16.8883 55.5 4.5 43.1849 4.5 28C4.5 12.8151 16.8883 0.5 32.1767 0.5C47.465 0.5 59.8533 12.8151 59.8533 28Z" stroke="#FFB600"/>
</g>
<g clip-path="url(#clip0)">
<path d="M30.9433 28.5169H29.2813C29.0128 28.5169 28.7952 28.7332 28.7952 28.9999C28.7952 29.2667 29.0128 29.483 29.2813 29.483H30.9433C31.2118 29.483 31.4294 29.2667 31.4294 28.9999C31.4294 28.7332 31.2118 28.5169 30.9433 28.5169Z" fill="black"/>
<path d="M40.8628 15.4025H33.6919V14.4831C33.6919 14.333 33.6217 14.1914 33.502 14.1C33.3821 14.0086 33.2264 13.9776 33.0805 14.0164L23.3648 16.591C23.1519 16.6474 23.0039 16.8389 23.0039 17.0578V18.618C23.0039 18.8848 23.2215 19.1011 23.49 19.1011C23.7585 19.1011 23.9761 18.8848 23.9761 18.618V17.4289L32.7197 15.1119V40.9277L23.9761 39.19V20.2462C23.9761 19.9794 23.7585 19.7631 23.49 19.7631C23.2215 19.7631 23.0039 19.9794 23.0039 20.2462V39.586C23.0039 39.8163 23.1674 40.0145 23.3947 40.0596L33.1105 41.9907C33.1421 41.997 33.174 42.0001 33.2058 42.0001C33.3172 42.0001 33.4263 41.962 33.514 41.8906C33.6266 41.7988 33.6919 41.6617 33.6919 41.517V40.5977H38.1718C38.4404 40.5977 38.6579 40.3814 38.6579 40.1147C38.6579 39.8479 38.4403 39.6316 38.1718 39.6316H33.6919V38.2533H38.5034C38.772 38.2533 38.9895 38.037 38.9895 37.7703V18.23C38.9895 17.9632 38.7719 17.7469 38.5034 17.7469H33.6919V16.3686H40.3766V39.6314H39.6831C39.4145 39.6314 39.197 39.8477 39.197 40.1144C39.197 40.3812 39.4146 40.5975 39.6831 40.5975H40.8627C41.1312 40.5975 41.3488 40.3812 41.3488 40.1144V15.8855C41.3489 15.6188 41.1312 15.4025 40.8628 15.4025ZM38.0174 18.713V37.287H33.692V18.713H38.0174Z" fill="black"/>
</g>
<defs>
<filter id="filter0_d" x="0" y="0" width="64.3533" height="64" filterUnits="userSpaceOnUse" color-interpolation-filters="sRGB">
<feFlood flood-opacity="0" result="BackgroundImageFix"/>
<feColorMatrix in="SourceAlpha" type="matrix" values="0 0 0 0 0 0 0 0 0 0 0 0 0 0 0 0 0 0 127 0"/>
<feOffset dy="4"/>
<feGaussianBlur stdDeviation="2"/>
<feColorMatrix type="matrix" values="0 0 0 0 0 0 0 0 0 0 0 0 0 0 0 0 0 0 0.25 0"/>
<feBlend mode="normal" in2="BackgroundImageFix" result="effect1_dropShadow"/>
<feBlend mode="normal" in="SourceGraphic" in2="effect1_dropShadow" result="shape"/>
</filter>
<linearGradient id="paint0_linear" x1="18.5159" y1="4.5" x2="50.0159" y2="50" gradientUnits="userSpaceOnUse">
<stop stop-color="#FFEB7B"/>
<stop offset="0.489583" stop-color="#FDDF68"/>
<stop offset="1" stop-color="#FFB704"/>
</linearGradient>
<clipPath id="clip0">
<rect width="28.1767" height="28" fill="white" transform="translate(18.0884 14)"/>
</clipPath>
</defs>
</svg>
