<svg width="65" height="64" viewBox="0 0 65 64" fill="none" xmlns="http://www.w3.org/2000/svg">
<g filter="url(#filter0_d)">
<ellipse cx="32.1767" cy="28" rx="28.1767" ry="28" fill="url(#paint0_linear)"/>
<path d="M59.8533 28C59.8533 43.1849 47.465 55.5 32.1767 55.5C16.8883 55.5 4.5 43.1849 4.5 28C4.5 12.8151 16.8883 0.5 32.1767 0.5C47.465 0.5 59.8533 12.8151 59.8533 28Z" stroke="#FFB600"/>
</g>
<g clip-path="url(#clip0)">
<path d="M44.7487 19.3641H38.8943C38.6659 19.3641 38.4807 19.5481 38.4807 19.7751C38.4807 20.0021 38.6659 20.186 38.8943 20.186H44.7487C45.1287 20.186 45.4379 20.4933 45.4379 20.871V23.9904H40.7667C39.3052 22.1235 37.0239 20.9202 34.4648 20.9202C31.9057 20.9202 29.6244 22.1235 28.1629 23.9904H18.9155V20.871C18.9155 20.4933 19.2246 20.186 19.6047 20.186H37.24C37.4684 20.186 37.6536 20.0021 37.6536 19.7751C37.6536 19.5481 37.4684 19.3641 37.24 19.3641H29.6044V19.0044C29.6044 18.3246 29.0478 17.7715 28.3637 17.7715H26.4773C25.7932 17.7715 25.2367 18.3246 25.2367 19.0044V19.3641H24.2361V19.0044C24.2361 18.3246 23.6795 17.7715 22.9954 17.7715H21.1089C20.4248 17.7715 19.8683 18.3246 19.8683 19.0044V19.3641H19.6047C18.7686 19.3641 18.0884 20.0401 18.0884 20.871V36.7217C18.0884 37.5526 18.7686 38.2285 19.6047 38.2285H25.3961C25.6245 38.2285 25.8097 38.0446 25.8097 37.8176C25.8097 37.5906 25.6245 37.4066 25.3961 37.4066H19.6047C19.2247 37.4066 18.9155 37.0994 18.9155 36.7217V35.0817H29.532C30.8906 36.1463 32.6044 36.7822 34.4648 36.7822C36.3005 36.7822 38.0285 36.1615 39.407 35.0817H45.4379V36.7217C45.4379 37.0994 45.1287 37.4066 44.7487 37.4066H27.0503C26.8219 37.4066 26.6367 37.5906 26.6367 37.8176C26.6367 38.0446 26.8219 38.2285 27.0503 38.2285H44.7487C45.5848 38.2285 46.265 37.5526 46.265 36.7217V20.871C46.265 20.0401 45.5848 19.3641 44.7487 19.3641ZM26.0637 19.0044C26.0637 18.7777 26.2493 18.5934 26.4773 18.5934H28.3637C28.5918 18.5934 28.7773 18.7777 28.7773 19.0044V19.3641H26.0637V19.0044ZM20.6954 19.0044C20.6954 18.7777 20.8809 18.5934 21.109 18.5934H22.9955C23.2235 18.5934 23.409 18.7777 23.409 19.0044V19.3641H20.6954V19.0044ZM18.9155 24.8123H27.5988C27.1817 25.5099 26.8689 26.2758 26.6825 27.0891C25.707 27.0918 24.9141 27.8811 24.9141 28.8512C24.9141 29.8212 25.707 30.6105 26.6825 30.6132C27.0007 32.0019 27.6869 33.2529 28.6332 34.2598H18.9155V24.8123ZM26.5386 29.7786C26.0875 29.7073 25.7413 29.3192 25.7413 28.8512C25.7413 28.3832 26.0875 27.9951 26.5386 27.9238C26.5027 28.2281 26.4837 28.5375 26.4837 28.8512C26.4837 29.1649 26.5027 29.4743 26.5386 29.7786ZM27.3108 28.8512C27.3108 24.9313 30.5201 21.7421 34.4648 21.7421C38.4095 21.7421 41.6187 24.9313 41.6187 28.8512C41.6187 29.2806 41.58 29.7105 41.5036 30.1291C41.4628 30.3524 41.6119 30.5663 41.8366 30.6069C42.0609 30.6471 42.2766 30.4992 42.3173 30.2758C42.4026 29.809 42.4458 29.3297 42.4458 28.8512C42.4458 27.3772 42.0386 25.9961 41.3308 24.8124H45.4379V34.2599H40.3047C40.9302 33.5925 41.4468 32.8118 41.8185 31.9385C41.9074 31.7294 41.8091 31.4883 41.5987 31.3999C41.3883 31.3116 41.1457 31.4093 41.0567 31.6183C39.934 34.256 37.3465 35.9604 34.4647 35.9604C30.5201 35.9603 27.3108 32.7712 27.3108 28.8512Z" fill="black"/>
<path d="M34.4647 22.8427C31.1307 22.8427 28.4182 25.5381 28.4182 28.8512C28.4182 32.1644 31.1307 34.8598 34.4647 34.8598C37.7987 34.8598 40.5112 32.1644 40.5112 28.8512C40.5112 25.538 37.7987 22.8427 34.4647 22.8427ZM34.4647 34.0378C31.5867 34.0378 29.2454 31.7111 29.2454 28.8512C29.2454 25.9913 31.5868 23.6646 34.4647 23.6646C37.3426 23.6646 39.684 25.9913 39.684 28.8512C39.684 31.7112 37.3427 34.0378 34.4647 34.0378Z" fill="black"/>
<path d="M34.4647 26.3983C33.1036 26.3983 31.9963 27.4987 31.9963 28.8512C31.9963 30.2037 33.1036 31.304 34.4647 31.304C35.8257 31.304 36.933 30.2037 36.933 28.8512C36.933 27.4987 35.8257 26.3983 34.4647 26.3983ZM34.4647 30.4822C33.5597 30.4822 32.8234 29.7505 32.8234 28.8512C32.8234 27.9519 33.5597 27.2202 34.4647 27.2202C35.3697 27.2202 36.1059 27.9519 36.1059 28.8512C36.1059 29.7505 35.3696 30.4822 34.4647 30.4822Z" fill="black"/>
<path d="M22.0058 30.0974C21.1723 30.0974 20.4941 30.7713 20.4941 31.5996C20.4941 32.4279 21.1723 33.1018 22.0058 33.1018C22.8394 33.1018 23.5175 32.4279 23.5175 31.5996C23.5175 30.7713 22.8394 30.0974 22.0058 30.0974ZM22.0058 32.2798C21.6284 32.2798 21.3213 31.9747 21.3213 31.5996C21.3213 31.2245 21.6284 30.9194 22.0058 30.9194C22.3833 30.9194 22.6904 31.2245 22.6904 31.5996C22.6904 31.9747 22.3833 32.2798 22.0058 32.2798Z" fill="black"/>
<path d="M43.3801 23.2369C44.0175 23.2369 44.536 22.7215 44.536 22.0882C44.536 21.4549 44.0175 20.9395 43.3801 20.9395H41.8278C41.1904 20.9395 40.6719 21.4549 40.6719 22.0882C40.6719 22.7215 41.1904 23.2369 41.8278 23.2369H43.3801ZM41.499 22.0882C41.499 21.9081 41.6464 21.7615 41.8278 21.7615H43.3801C43.5614 21.7615 43.7089 21.9081 43.7089 22.0882C43.7089 22.2684 43.5614 22.415 43.3801 22.415H41.8278C41.6464 22.415 41.499 22.2684 41.499 22.0882Z" fill="black"/>
<path d="M21.4043 21.6772C21.1759 21.6772 20.9907 21.8612 20.9907 22.0882C20.9907 22.3152 21.1759 22.4991 21.4043 22.4991H23.3387C23.5671 22.4991 23.7523 22.3152 23.7523 22.0882C23.7523 21.8612 23.5671 21.6772 23.3387 21.6772H21.4043Z" fill="black"/>
<path d="M25.4915 21.6772C25.2631 21.6772 25.0779 21.8612 25.0779 22.0882C25.0779 22.3152 25.263 22.4991 25.4915 22.4991H26.7918C27.0202 22.4991 27.2053 22.3152 27.2053 22.0882C27.2053 21.8612 27.0202 21.6772 26.7918 21.6772H25.4915Z" fill="black"/>
</g>
<defs>
<filter id="filter0_d" x="0" y="0" width="64.3533" height="64" filterUnits="userSpaceOnUse" color-interpolation-filters="sRGB">
<feFlood flood-opacity="0" result="BackgroundImageFix"/>
<feColorMatrix in="SourceAlpha" type="matrix" values="0 0 0 0 0 0 0 0 0 0 0 0 0 0 0 0 0 0 127 0"/>
<feOffset dy="4"/>
<feGaussianBlur stdDeviation="2"/>
<feColorMatrix type="matrix" values="0 0 0 0 0 0 0 0 0 0 0 0 0 0 0 0 0 0 0.25 0"/>
<feBlend mode="normal" in2="BackgroundImageFix" result="effect1_dropShadow"/>
<feBlend mode="normal" in="SourceGraphic" in2="effect1_dropShadow" result="shape"/>
</filter>
<linearGradient id="paint0_linear" x1="18.5159" y1="4.5" x2="50.0159" y2="50" gradientUnits="userSpaceOnUse">
<stop stop-color="#FFEB7B"/>
<stop offset="0.489583" stop-color="#FDDF68"/>
<stop offset="1" stop-color="#FFB704"/>
</linearGradient>
<clipPath id="clip0">
<rect width="28.1767" height="28" fill="white" transform="translate(18.0884 14)"/>
</clipPath>
</defs>
</svg>
