<svg width="65" height="64" viewBox="0 0 65 64" fill="none" xmlns="http://www.w3.org/2000/svg">
<g filter="url(#filter0_d)">
<circle cx="32.9841" cy="28" r="28" fill="url(#paint0_linear)"/>
<circle cx="32.9841" cy="28" r="27.5" stroke="#FFB600"/>
</g>
<path d="M38.9582 21.5105C38.8517 21.2798 38.5782 21.179 38.3475 21.2855C38.1167 21.392 38.016 21.6655 38.1225 21.8963C38.4708 22.6509 38.6474 23.4586 38.6474 24.2969C38.6474 27.4593 36.0746 30.0321 32.9123 30.0321C29.7499 30.0321 27.1771 27.4593 27.1771 24.2969C27.1771 21.1345 29.7499 18.5617 32.9123 18.5617C34.5296 18.5617 36.08 19.2499 37.1659 20.4499C37.3366 20.6384 37.6274 20.6529 37.8161 20.4824C38.0045 20.3118 38.0191 20.0208 37.8484 19.8323C36.5883 18.4398 34.7891 17.6412 32.9123 17.6412C29.2423 17.6412 26.2566 20.627 26.2566 24.2969C26.2566 27.9669 29.2423 30.9526 32.9123 30.9526C36.5822 30.9526 39.5679 27.9669 39.5679 24.2969C39.5679 23.3245 39.3627 22.387 38.9582 21.5105Z" fill="black"/>
<path d="M42.1042 24.2969C42.1042 23.9446 42.2585 23.5366 42.4217 23.1046C42.6683 22.4524 42.9232 21.778 42.7077 21.1144C42.4831 20.4229 41.838 20.0026 41.2688 19.6317C40.8949 19.3881 40.5418 19.1581 40.3494 18.8937C40.1529 18.6237 40.0411 18.2125 39.9228 17.7772C39.7459 17.1261 39.5454 16.3882 38.9655 15.9662C38.3915 15.5485 37.6643 15.5828 36.9611 15.616C36.5069 15.6374 36.0778 15.6576 35.7535 15.5523C35.4517 15.4543 35.129 15.1934 34.7874 14.9173C34.2553 14.4874 33.6523 14 32.9123 14C32.1722 14 31.5691 14.4874 31.0371 14.9175C30.6954 15.1936 30.3727 15.4545 30.071 15.5525C29.7467 15.6578 29.3176 15.6375 28.8634 15.6161C28.1602 15.5829 27.4329 15.5486 26.8589 15.9664C26.2791 16.3884 26.0786 17.1263 25.9016 17.7773C25.7834 18.2126 25.6716 18.6238 25.4751 18.8938C25.2827 19.1582 24.9295 19.3883 24.5557 19.6318C23.9864 20.0027 23.3413 20.423 23.1168 21.1144C22.9013 21.7781 23.1562 22.4525 23.4028 23.1047C23.566 23.5367 23.7202 23.9447 23.7202 24.297C23.7202 24.6493 23.566 25.0573 23.4027 25.4893C23.1562 26.1415 22.9013 26.8159 23.1168 27.4796C23.3413 28.171 23.9865 28.5913 24.5557 28.9622C24.9295 29.2057 25.2827 29.4358 25.4751 29.7002C25.6716 29.9702 25.7833 30.3814 25.9016 30.8167C26.0786 31.4677 26.2791 32.2056 26.8589 32.6276C27.4329 33.0453 28.1601 33.011 28.8634 32.9779C29.3175 32.9564 29.7466 32.9362 30.0709 33.0415C30.3727 33.1395 30.6954 33.4004 31.0371 33.6766C31.2942 33.8843 31.5681 34.1051 31.8658 34.2782L30.1013 40.6077L28.4728 38.793C28.3532 38.6597 28.1673 38.608 27.9961 38.66L25.6645 39.3705L27.1263 34.1282C27.1946 33.8833 27.0514 33.6295 26.8066 33.5612C26.5617 33.493 26.3079 33.6361 26.2397 33.8809L24.5523 39.9318C24.5072 40.0937 24.5538 40.2673 24.6741 40.3848C24.7943 40.5022 24.9691 40.5447 25.1298 40.4957L27.9836 39.6261L29.9766 41.8471C30.0649 41.9456 30.1901 42 30.3191 41.9999C30.354 41.9999 30.3891 41.996 30.424 41.9879C30.5876 41.9496 30.7174 41.8252 30.7625 41.6633L32.7361 34.5834C32.794 34.5895 32.8525 34.5937 32.9121 34.5937C32.9716 34.5937 33.03 34.5895 33.0879 34.5834L35.0622 41.6633C35.1074 41.8252 35.2372 41.9496 35.4008 41.9879C35.4356 41.996 35.4707 41.9999 35.5055 41.9999C35.6346 41.9999 35.7598 41.9455 35.8481 41.847L37.8405 39.626L40.6949 40.4956C40.8556 40.5445 41.0302 40.5021 41.1505 40.3846C41.2707 40.2672 41.3174 40.0936 41.2723 39.9318L39.1825 32.4369C39.5991 32.0045 39.77 31.3784 39.9226 30.8164C40.0409 30.3811 40.1527 29.9699 40.3492 29.6999C40.5416 29.4355 40.8948 29.2055 41.2686 28.9619C41.8379 28.5911 42.483 28.1707 42.7074 27.4794C42.923 26.8157 42.6681 26.1413 42.4215 25.4891C42.2584 25.0572 42.1042 24.6492 42.1042 24.2969ZM40.1604 39.3705L37.8281 38.66C37.6568 38.6077 37.4708 38.6597 37.3513 38.793L35.7235 40.6077L33.9583 34.2782C34.2561 34.105 34.5301 33.8842 34.7873 33.6763C35.129 33.4002 35.4517 33.1394 35.7535 33.0413C36.0779 32.9359 36.5069 32.9562 36.9611 32.9776C37.434 32.9999 37.9176 33.0221 38.3583 32.9076L40.1604 39.3705ZM41.8321 27.1953C41.7081 27.5773 41.2506 27.8753 40.7662 28.1909C40.339 28.4692 39.8972 28.757 39.6051 29.1585C39.3089 29.5654 39.1694 30.0788 39.0345 30.5752C38.8841 31.1289 38.7419 31.6518 38.4239 31.8833C38.1115 32.1105 37.5738 32.0852 37.0044 32.0584C36.4877 32.0341 35.9534 32.0088 35.4692 32.166C35.0054 32.3166 34.6004 32.644 34.2087 32.9606C33.7551 33.3272 33.3268 33.6734 32.9122 33.6734C32.4976 33.6734 32.0692 33.3271 31.6157 32.9605C31.224 32.6439 30.8189 32.3164 30.3552 32.1659C30.0498 32.0668 29.7245 32.0402 29.3962 32.0402C29.2041 32.0402 29.0108 32.0493 28.82 32.0583C28.2507 32.0852 27.7129 32.1105 27.4006 31.8832C27.0825 31.6518 26.9404 31.1288 26.7899 30.5752C26.6551 30.0787 26.5155 29.5653 26.2194 29.1584C25.9273 28.757 25.4855 28.4692 25.0582 28.1908C24.5738 27.8753 24.1164 27.5772 23.9923 27.1952C23.8767 26.8389 24.0647 26.3414 24.2638 25.8147C24.4491 25.3244 24.6408 24.8174 24.6408 24.297C24.6408 23.7766 24.4491 23.2695 24.2639 22.7793C24.0647 22.2526 23.8767 21.7551 23.9924 21.3988C24.1164 21.0168 24.5739 20.7187 25.0583 20.4032C25.4855 20.1248 25.9273 19.837 26.2194 19.4357C26.5156 19.0287 26.6551 18.5154 26.79 18.0189C26.9404 17.4653 27.0826 16.9424 27.4006 16.7109C27.7129 16.4836 28.2508 16.5089 28.8201 16.5358C29.3367 16.5601 29.8711 16.5854 30.3553 16.4282C30.8191 16.2776 31.2241 15.9502 31.6158 15.6336C32.0693 15.2669 32.4977 14.9206 32.9123 14.9206C33.3268 14.9206 33.7553 15.2669 34.2087 15.6334C34.6004 15.95 35.0055 16.2775 35.4692 16.428C35.9534 16.5852 36.4877 16.5601 37.0044 16.5356C37.5737 16.5088 38.1115 16.4835 38.4238 16.7107C38.7419 16.9422 38.884 17.4651 39.0345 18.0188C39.1693 18.5152 39.3089 19.0286 39.605 19.4355C39.8971 19.8369 40.3389 20.1247 40.7661 20.403C41.2505 20.7186 41.708 21.0166 41.8321 21.3987C41.9477 21.755 41.7597 22.2525 41.5606 22.7792C41.3752 23.2695 41.1836 23.7765 41.1836 24.2969C41.1836 24.8174 41.3754 25.3242 41.5607 25.8146C41.7598 26.3413 41.9478 26.8389 41.8321 27.1953Z" fill="black"/>
<path d="M29.4434 24.7695L29.7285 22.4492H32.4902V23.2305H30.5137L30.3848 24.1797C30.6452 24.0677 30.9069 24.0117 31.1699 24.0117C31.6517 24.0117 32.0319 24.1445 32.3105 24.4102C32.5892 24.6732 32.7285 25.0404 32.7285 25.5117C32.7285 25.9727 32.5762 26.3464 32.2715 26.6328C31.9694 26.9193 31.554 27.0625 31.0254 27.0625C30.554 27.0625 30.1556 26.9414 29.8301 26.6992C29.5046 26.4544 29.3327 26.138 29.3145 25.75H30.2441C30.265 25.9427 30.3457 26.0833 30.4863 26.1719C30.627 26.2604 30.8066 26.3047 31.0254 26.3047C31.2598 26.3047 31.4447 26.2357 31.5801 26.0977C31.7155 25.9596 31.7832 25.7604 31.7832 25.5C31.7832 25.2578 31.7064 25.0664 31.5527 24.9258C31.3991 24.7826 31.1921 24.7109 30.9316 24.7109C30.6868 24.7109 30.4863 24.7617 30.3301 24.8633L30.1973 24.9531L29.4434 24.7695ZM36.791 25.1211C36.791 25.7461 36.6426 26.2266 36.3457 26.5625C36.0514 26.8958 35.6322 27.0625 35.0879 27.0625C34.5566 27.0625 34.14 26.901 33.8379 26.5781C33.5384 26.2552 33.3848 25.7852 33.377 25.168V24.332C33.377 23.7096 33.5241 23.2305 33.8184 22.8945C34.1126 22.556 34.5332 22.3867 35.0801 22.3867C35.6243 22.3867 36.0449 22.5534 36.3418 22.8867C36.6387 23.2201 36.7884 23.6979 36.791 24.3203V25.1211ZM35.8379 24.2422C35.8379 23.5156 35.5853 23.1523 35.0801 23.1523C34.5879 23.1523 34.3353 23.4948 34.3223 24.1797V25.2031C34.3223 25.9375 34.5775 26.3047 35.0879 26.3047C35.5723 26.3047 35.8223 25.9635 35.8379 25.2812V24.2422Z" fill="black"/>
<defs>
<filter id="filter0_d" x="0.984131" y="0" width="64" height="64" filterUnits="userSpaceOnUse" color-interpolation-filters="sRGB">
<feFlood flood-opacity="0" result="BackgroundImageFix"/>
<feColorMatrix in="SourceAlpha" type="matrix" values="0 0 0 0 0 0 0 0 0 0 0 0 0 0 0 0 0 0 127 0"/>
<feOffset dy="4"/>
<feGaussianBlur stdDeviation="2"/>
<feColorMatrix type="matrix" values="0 0 0 0 0 0 0 0 0 0 0 0 0 0 0 0 0 0 0.25 0"/>
<feBlend mode="normal" in2="BackgroundImageFix" result="effect1_dropShadow"/>
<feBlend mode="normal" in="SourceGraphic" in2="effect1_dropShadow" result="shape"/>
</filter>
<linearGradient id="paint0_linear" x1="19.409" y1="4.5" x2="50.9783" y2="49.8142" gradientUnits="userSpaceOnUse">
<stop stop-color="#FFEB7B"/>
<stop offset="0.489583" stop-color="#FDDF68"/>
<stop offset="1" stop-color="#FFB704"/>
</linearGradient>
</defs>
</svg>
