<svg width="65" height="64" viewBox="0 0 65 64" fill="none" xmlns="http://www.w3.org/2000/svg">
<g filter="url(#filter0_d)">
<circle cx="32.9841" cy="28" r="28" fill="url(#paint0_linear)"/>
<circle cx="32.9841" cy="28" r="27.5" stroke="#FFB600"/>
</g>
<g clip-path="url(#clip0)">
<path d="M40.0512 14.4326H20.4739C20.2034 14.4326 19.9841 14.6519 19.9841 14.9223V17.6492C19.9841 17.9196 20.2034 18.1389 20.4739 18.1389C20.7443 18.1389 20.9636 17.9197 20.9636 17.6492V15.412H39.5616V40.5879H20.9635V19.2815C20.9635 19.0111 20.7443 18.7918 20.4738 18.7918C20.2033 18.7918 19.9841 19.0111 19.9841 19.2815V41.0777C19.9841 41.3481 20.2034 41.5674 20.4739 41.5674H40.0513C40.3217 41.5674 40.541 41.3482 40.541 41.0777V14.9223C40.5409 14.6519 40.3218 14.4326 40.0512 14.4326Z" fill="black"/>
<path d="M47.4944 33.678C47.224 33.678 47.0047 33.8973 47.0047 34.1677V37.1384H43.7729V19.9354H47.0047V32.5355C47.0047 32.8059 47.224 33.0252 47.4944 33.0252C47.7649 33.0252 47.9842 32.8059 47.9842 32.5355V19.4457C47.9842 19.3742 47.9686 19.3037 47.9384 19.239L45.8327 14.7156C45.7523 14.543 45.5792 14.4326 45.3888 14.4326C45.1983 14.4326 45.0252 14.543 44.9448 14.7156L42.8392 19.239C42.8092 19.3037 42.7935 19.3743 42.7935 19.4457V39.7712C42.7935 40.7616 43.5992 41.5673 44.5896 41.5673H46.188C47.1784 41.5673 47.9841 40.7616 47.9841 39.7712V34.1677C47.9842 33.8973 47.7649 33.678 47.4944 33.678ZM45.3888 16.0827L46.7263 18.956H44.0513L45.3888 16.0827ZM47.0048 39.7712C47.0048 40.2216 46.6384 40.588 46.188 40.588H44.5897C44.1393 40.588 43.7729 40.2216 43.7729 39.7712V38.1178H47.0048V39.7712Z" fill="black"/>
<path d="M35.5021 18.3347H25.0229C24.7525 18.3347 24.5332 18.554 24.5332 18.8244C24.5332 19.0949 24.7524 19.3142 25.0229 19.3142H35.5021C35.7725 19.3142 35.9918 19.0949 35.9918 18.8244C35.9918 18.554 35.7725 18.3347 35.5021 18.3347Z" fill="black"/>
<path d="M37.1131 23.3708H35.1218C34.8514 23.3708 34.6321 23.5901 34.6321 23.8606C34.6321 24.1311 34.8513 24.3503 35.1218 24.3503H37.1131C37.3836 24.3503 37.6029 24.1311 37.6029 23.8606C37.6029 23.5901 37.3836 23.3708 37.1131 23.3708Z" fill="black"/>
<path d="M33.4894 23.3708H23.4118C23.1413 23.3708 22.9221 23.5901 22.9221 23.8606C22.9221 24.1311 23.1414 24.3503 23.4118 24.3503H33.4894C33.7599 24.3503 33.9792 24.1311 33.9792 23.8606C33.9792 23.5901 33.7599 23.3708 33.4894 23.3708Z" fill="black"/>
<path d="M37.1131 28.4428H23.4118C23.1414 28.4428 22.9221 28.6621 22.9221 28.9325C22.9221 29.203 23.1413 29.4223 23.4118 29.4223H37.1131C37.3836 29.4223 37.6029 29.203 37.6029 28.9325C37.6028 28.6621 37.3836 28.4428 37.1131 28.4428Z" fill="black"/>
<path d="M37.1132 25.9069H27.385C27.1146 25.9069 26.8953 26.1261 26.8953 26.3966C26.8953 26.6671 27.1145 26.8863 27.385 26.8863H37.1132C37.3836 26.8863 37.6029 26.6671 37.6029 26.3966C37.6029 26.1261 37.3837 25.9069 37.1132 25.9069Z" fill="black"/>
<path d="M25.7526 25.9069H23.4118C23.1414 25.9069 22.9221 26.1261 22.9221 26.3966C22.9221 26.6671 23.1413 26.8863 23.4118 26.8863H25.7526C26.023 26.8863 26.2423 26.6671 26.2423 26.3966C26.2423 26.1261 26.023 25.9069 25.7526 25.9069Z" fill="black"/>
<path d="M37.1131 36.0508H23.4118C23.1414 36.0508 22.9221 36.27 22.9221 36.5405C22.9221 36.8109 23.1413 37.0302 23.4118 37.0302H37.1131C37.3836 37.0302 37.6029 36.811 37.6029 36.5405C37.6028 36.27 37.3836 36.0508 37.1131 36.0508Z" fill="black"/>
<path d="M37.1131 33.5148H33.8486C33.5782 33.5148 33.3589 33.7341 33.3589 34.0046C33.3589 34.275 33.5781 34.4943 33.8486 34.4943H37.1131C37.3835 34.4943 37.6028 34.275 37.6028 34.0046C37.6028 33.7341 37.3836 33.5148 37.1131 33.5148Z" fill="black"/>
<path d="M32.2163 33.5148H23.4118C23.1414 33.5148 22.9221 33.7341 22.9221 34.0046C22.9221 34.275 23.1413 34.4943 23.4118 34.4943H32.2163C32.4867 34.4943 32.706 34.275 32.706 34.0046C32.706 33.7341 32.4867 33.5148 32.2163 33.5148Z" fill="black"/>
</g>
<defs>
<filter id="filter0_d" x="0.984131" y="0" width="64" height="64" filterUnits="userSpaceOnUse" color-interpolation-filters="sRGB">
<feFlood flood-opacity="0" result="BackgroundImageFix"/>
<feColorMatrix in="SourceAlpha" type="matrix" values="0 0 0 0 0 0 0 0 0 0 0 0 0 0 0 0 0 0 127 0"/>
<feOffset dy="4"/>
<feGaussianBlur stdDeviation="2"/>
<feColorMatrix type="matrix" values="0 0 0 0 0 0 0 0 0 0 0 0 0 0 0 0 0 0 0.25 0"/>
<feBlend mode="normal" in2="BackgroundImageFix" result="effect1_dropShadow"/>
<feBlend mode="normal" in="SourceGraphic" in2="effect1_dropShadow" result="shape"/>
</filter>
<linearGradient id="paint0_linear" x1="19.409" y1="4.5" x2="50.9783" y2="49.8142" gradientUnits="userSpaceOnUse">
<stop stop-color="#FFEB7B"/>
<stop offset="0.489583" stop-color="#FDDF68"/>
<stop offset="1" stop-color="#FFB704"/>
</linearGradient>
<clipPath id="clip0">
<rect width="28" height="28" fill="white" transform="translate(19.9841 14)"/>
</clipPath>
</defs>
</svg>
