<svg width="64" height="64" viewBox="0 0 64 64" fill="none" xmlns="http://www.w3.org/2000/svg">
<g filter="url(#filter0_d)">
<circle cx="32" cy="28" r="28" fill="url(#paint0_linear)"/>
<circle cx="32" cy="28" r="27.5" stroke="#FFB600"/>
</g>
<path d="M23.5801 30.8973C22.5423 28.774 22.0161 26.724 22.0161 24.8045C22.0161 19.2993 26.4948 14.8205 32.0001 14.8205C35.27 14.8205 38.3375 16.4261 40.2057 19.1154C40.335 19.3015 40.5907 19.3476 40.7767 19.2183C40.9628 19.089 41.0088 18.8334 40.8796 18.6473C38.8581 15.7373 35.5386 14 32.0001 14C26.0425 14 21.1956 18.8469 21.1956 24.8045C21.1956 26.85 21.7498 29.0211 22.8429 31.2577C22.9141 31.4033 23.06 31.4879 23.2118 31.4879C23.2723 31.4879 23.3337 31.4745 23.3916 31.4461C23.5952 31.3467 23.6796 31.1009 23.5801 30.8973Z" fill="black"/>
<path d="M41.7353 20.1129C41.6367 19.9089 41.3914 19.8233 41.1874 19.9218C40.9834 20.0204 40.8978 20.2657 40.9963 20.4697C41.6516 21.827 41.9838 23.2856 41.9838 24.8046C41.9838 26.7328 41.4529 28.7925 40.4057 30.9263C39.5598 32.6499 38.378 34.424 36.893 36.1993C34.814 38.6848 32.7101 40.4814 32.0001 41.0632C30.9625 40.2119 26.9456 36.7599 24.3454 32.3211C24.2308 32.1256 23.9795 32.06 23.784 32.1745C23.5885 32.289 23.5229 32.5404 23.6374 32.7359C26.711 37.9827 31.5446 41.7561 31.7489 41.9141C31.8227 41.9714 31.9113 42 31.9999 42C32.0885 42 32.1771 41.9714 32.2509 41.9142C32.3585 41.831 34.9144 39.8407 37.5115 36.7387C39.0414 34.9116 40.2616 33.0804 41.1383 31.2962C42.2438 29.046 42.8044 26.8618 42.8044 24.8046C42.8044 23.1609 42.4447 21.5825 41.7353 20.1129Z" fill="black"/>
<path d="M28.6799 22.2879C28.4868 22.1692 28.2342 22.2297 28.1156 22.4227C27.6763 23.1377 27.4441 23.9614 27.4441 24.8046C27.4441 27.3168 29.4879 29.3606 32.0001 29.3606C34.5123 29.3606 36.5561 27.3168 36.5561 24.8046C36.5561 22.2924 34.5122 20.2486 32.0001 20.2486C31.0427 20.2486 30.1266 20.5423 29.3506 21.0978C29.1663 21.2297 29.1239 21.486 29.2558 21.6703C29.3877 21.8545 29.6439 21.8969 29.8282 21.765C30.464 21.3098 31.2151 21.0691 32.0001 21.0691C34.0598 21.0691 35.7355 22.7448 35.7355 24.8045C35.7355 26.8643 34.0598 28.5399 32.0001 28.5399C29.9403 28.5399 28.2646 26.8642 28.2646 24.8045C28.2646 24.113 28.4548 23.4379 28.8147 22.8522C28.9333 22.6592 28.873 22.4065 28.6799 22.2879Z" fill="black"/>
<defs>
<filter id="filter0_d" x="0" y="0" width="64" height="64" filterUnits="userSpaceOnUse" color-interpolation-filters="sRGB">
<feFlood flood-opacity="0" result="BackgroundImageFix"/>
<feColorMatrix in="SourceAlpha" type="matrix" values="0 0 0 0 0 0 0 0 0 0 0 0 0 0 0 0 0 0 127 0"/>
<feOffset dy="4"/>
<feGaussianBlur stdDeviation="2"/>
<feColorMatrix type="matrix" values="0 0 0 0 0 0 0 0 0 0 0 0 0 0 0 0 0 0 0.25 0"/>
<feBlend mode="normal" in2="BackgroundImageFix" result="effect1_dropShadow"/>
<feBlend mode="normal" in="SourceGraphic" in2="effect1_dropShadow" result="shape"/>
</filter>
<linearGradient id="paint0_linear" x1="18.4249" y1="4.5" x2="49.9941" y2="49.8142" gradientUnits="userSpaceOnUse">
<stop stop-color="#FFEB7B"/>
<stop offset="0.489583" stop-color="#FDDF68"/>
<stop offset="1" stop-color="#FFB704"/>
</linearGradient>
</defs>
</svg>
